<svg xmlns="http://www.w3.org/2000/svg" xmlns:xlink="http://www.w3.org/1999/xlink" width="54.923" height="66" viewBox="0 0 54.923 66">
  <defs>
    <filter id="Path_389" x="0" y="0" width="54.923" height="66" filterUnits="userSpaceOnUse">
      <feOffset input="SourceAlpha"/>
      <feGaussianBlur stdDeviation="3" result="blur"/>
      <feFlood flood-opacity="0.322"/>
      <feComposite operator="in" in2="blur"/>
      <feComposite in="SourceGraphic"/>
    </filter>
  </defs>
  <g id="Group_1332" data-name="Group 1332" transform="translate(-4063.079 -6470)">
    <g transform="matrix(1, 0, 0, 1, 4063.08, 6470)" filter="url(#Path_389)">
      <path id="Path_389-2" data-name="Path 389" d="M3593.305-3184.938c0,13.128-18.692,28.77-18.692,28.77s-18.231-15.642-18.231-28.77,8.035-19.23,18.231-19.23S3593.305-3198.066,3593.305-3184.938Z" transform="translate(-3547.38 3213.17)" fill="#efc20e"/>
    </g>
    <g id="Group_1244" data-name="Group 1244" transform="translate(3286.664 5965.5)">
      <rect id="Rectangle_236" data-name="Rectangle 236" width="30" height="30" transform="translate(789.336 517)" fill="none"/>
      <g id="beer" transform="translate(758.5 520)">
        <g id="Group_1113" data-name="Group 1113" transform="translate(46.771 21.144)">
          <g id="Group_1112" data-name="Group 1112">
            <path id="Path_338" data-name="Path 338" d="M276.47,451.29a.47.47,0,1,0,.47.47A.471.471,0,0,0,276.47,451.29Z" transform="translate(-276 -451.29)"/>
          </g>
        </g>
        <g id="Group_1115" data-name="Group 1115" transform="translate(40.187 9.365)">
          <g id="Group_1114" data-name="Group 1114">
            <path id="Path_339" data-name="Path 339" d="M135.97,200.29a.47.47,0,0,0-.47.47v8.985a.47.47,0,1,0,.941,0V200.76A.47.47,0,0,0,135.97,200.29Z" transform="translate(-135.5 -200.29)"/>
          </g>
        </g>
        <g id="Group_1117" data-name="Group 1117" transform="translate(43.936 9.365)">
          <g id="Group_1116" data-name="Group 1116">
            <path id="Path_340" data-name="Path 340" d="M215.97,200.29a.47.47,0,0,0-.47.47v8.985a.47.47,0,1,0,.941,0V200.76A.47.47,0,0,0,215.97,200.29Z" transform="translate(-215.5 -200.29)"/>
          </g>
        </g>
        <g id="Group_1119" data-name="Group 1119" transform="translate(35.5)">
          <g id="Group_1118" data-name="Group 1118" transform="translate(0)">
            <path id="Path_341" data-name="Path 341" d="M53.828,7.547H51.484V6.128a2.336,2.336,0,0,0-.893-4.152,2.37,2.37,0,0,0-1.345.1A2.348,2.348,0,0,0,47.266.984a2.313,2.313,0,0,0-.884.174,4.195,4.195,0,0,0-6.407.744A4.228,4.228,0,0,0,35.5,6.107v5.625a1.42,1.42,0,0,0,1.43,1.406,1.4,1.4,0,0,0,.492-.089v8.606A2.346,2.346,0,0,0,39.766,24h9.375a2.346,2.346,0,0,0,2.344-2.344V20.25h2.344a2.346,2.346,0,0,0,2.344-2.344V9.891A2.346,2.346,0,0,0,53.828,7.547ZM50.547,21.188h-1.43a.466.466,0,1,0,0,.933h1.35a1.413,1.413,0,0,1-1.326.942H39.766a1.409,1.409,0,0,1-1.326-.938h6.928a.469.469,0,1,0,0-.937H38.359V8.414a3.254,3.254,0,0,0,2.444-1.8.347.347,0,0,1,.249.1,2.812,2.812,0,0,0,3.993-.051.155.155,0,0,1,.111-.047c.73,0,1.207.156,1.419.463a1.573,1.573,0,0,1,.175.888v1.9a1.409,1.409,0,0,0,.937,1.326v7.628a.469.469,0,0,0,.938,0V11.183a1.408,1.408,0,0,0,.938-1.326v-3.3a2.487,2.487,0,0,0,.984,0ZM49.306,5.482a.469.469,0,0,0-.681.418V9.857a.469.469,0,0,1-.938,0v-1.9a2.386,2.386,0,0,0-.34-1.421,2.49,2.49,0,0,0-2.191-.868A1.1,1.1,0,0,0,44.371,6a1.874,1.874,0,0,1-2.662.033,1.284,1.284,0,0,0-.906-.366.942.942,0,0,0-.841.525,2.323,2.323,0,0,1-2.076,1.317.469.469,0,0,0-.465.469V11.71a.506.506,0,0,1-.492.491.487.487,0,0,1-.492-.469V6.107a3.289,3.289,0,0,1,3.3-3.274,3.344,3.344,0,0,1,.426.027.469.469,0,0,0,.468-.236,3.262,3.262,0,0,1,5.307-.579.469.469,0,0,0,.6.084,1.357,1.357,0,0,1,.727-.207,1.408,1.408,0,0,1,1.327.94.469.469,0,0,0,.7.234,1.406,1.406,0,0,1,2.15.837A1.44,1.44,0,0,1,49.306,5.482Zm2.178,4.877h1.875v7.078H51.484Zm3.75,7.547a1.408,1.408,0,0,1-1.406,1.406H51.484v-.938h2.344a.469.469,0,0,0,.469-.469V9.891a.469.469,0,0,0-.469-.469H51.484V8.484h2.344a1.408,1.408,0,0,1,1.406,1.406Z" transform="translate(-35.5)"/>
          </g>
        </g>
      </g>
    </g>
  </g>
</svg>
