<svg xmlns="http://www.w3.org/2000/svg" width="30" height="30" viewBox="0 0 30 30">
  <g id="Group_1485" data-name="Group 1485" transform="translate(14272.29 9719.223)">
    <rect id="Rectangle_288" data-name="Rectangle 288" width="30" height="30" transform="translate(-14272.29 -9719.223)" fill="none"/>
    <g id="Group_1457" data-name="Group 1457" transform="translate(-14401.469 -9787.584)">
      <g id="Group_1411" data-name="Group 1411" transform="translate(132.179 73.496)">
        <path id="Path_534" data-name="Path 534" d="M145.691,89.087a2.332,2.332,0,0,0-2.7-.287l-2.025-4.105a36.066,36.066,0,0,0,2.844-10.814.362.362,0,0,0-.686-.181l-3.789,7.684L135.547,73.7a.359.359,0,0,0-.418-.19.363.363,0,0,0-.269.371,36.29,36.29,0,0,0,2.847,10.811L135.68,88.8a2.36,2.36,0,1,0-1.3,4.421c.052,0,.1.005.154.005a2.349,2.349,0,0,0,1.689-.722l.013-.01.015-.017a2.469,2.469,0,0,0,.226-.284,30.968,30.968,0,0,0,2.855-4.216,31.025,31.025,0,0,0,2.865,4.23,2.211,2.211,0,0,0,.216.267l.015.02.013.01a2.349,2.349,0,0,0,1.689.722c.05,0,.1,0,.154-.005a2.365,2.365,0,0,0,1.4-4.134Zm-8.829,1.4a2.36,2.36,0,0,0-.6-1.232l6.546-13.277A35.64,35.64,0,0,1,136.862,90.49Zm-1-14.508,3.068,6.222-.8,1.628A37.547,37.547,0,0,1,135.863,75.982ZM134.432,92.5a1.654,1.654,0,1,1,1.449-.72c-.049.06-.092.121-.141.18A1.623,1.623,0,0,1,134.432,92.5Zm6.149-6.944,1.828,3.706a2.361,2.361,0,0,0-.6,1.239,30.88,30.88,0,0,1-2.059-3.275Q140.2,86.381,140.581,85.552Zm3.66,6.944a1.637,1.637,0,0,1-1.327-.561c-.035-.042-.069-.086-.105-.131a1.618,1.618,0,0,1-.3-.836,1.635,1.635,0,0,1,1.521-1.739c.037,0,.072,0,.109,0a1.637,1.637,0,0,1,.1,3.27Z" transform="translate(-132.179 -73.496)" fill="#fcc000"/>
      </g>
      <g id="Group_1412" data-name="Group 1412" transform="translate(146.389 73.496)">
        <path id="Path_535" data-name="Path 535" d="M149.15,73.5h-6.824a1.7,1.7,0,0,0-1.7,1.7v.361a.363.363,0,0,0,.362.364h6.891v1.091h-6.891a.364.364,0,0,0,0,.728h6.891v1.089h-6.891a.364.364,0,0,0,0,.728h6.891v1.091h-6.891a.364.364,0,0,0,0,.728h6.891v1.089h-6.891a.364.364,0,0,0,0,.728h6.891v1.091h-6.891a.363.363,0,0,0-.362.364,2.063,2.063,0,0,0,2.057,2.063h5.2v5.238a1.269,1.269,0,1,0,2.537,0V74.768A1.272,1.272,0,0,0,149.15,73.5Zm.544,18.458a.544.544,0,1,1-1.088,0v-5.6a.363.363,0,0,0-.362-.363h-5.558a1.335,1.335,0,0,1-1.282-.972h6.841a.364.364,0,0,0,.362-.364V75.559a.363.363,0,0,0-.362-.363h-6.891a.976.976,0,0,1,.972-.974h6.824a.546.546,0,0,1,.544.545Z" transform="translate(-140.629 -73.496)" fill="#fcc000"/>
      </g>
    </g>
  </g>
</svg>
