<svg xmlns="http://www.w3.org/2000/svg" width="30" height="30" viewBox="0 0 30 30">
  <g id="Group_1489" data-name="Group 1489" transform="translate(14281.869 9636.657)">
    <rect id="Rectangle_292" data-name="Rectangle 292" width="30" height="30" transform="translate(-14281.869 -9636.657)" fill="none"/>
    <g id="Group_1462" data-name="Group 1462" transform="translate(-14411.469 -9777.495)">
      <g id="Group_1431" data-name="Group 1431" transform="translate(134.78 143.838)">
        <path id="Path_552" data-name="Path 552" d="M143.189,157.376h-.783v-4.99a.366.366,0,0,0-.366-.366H141.5V145.3a.213.213,0,0,0-.007-.032c0-.032.007-.065.007-.1a1.26,1.26,0,0,0-.439-.982c-.727-.616-2.126-.394-3.188.5a2.678,2.678,0,0,0-1.028,1.792.322.322,0,0,0-.005.037v5.5h-.543a.366.366,0,0,0-.366.366v4.99h-.783a.363.363,0,0,0-.365.364v7.915a2.188,2.188,0,0,0,2.192,2.182h4.389a2.19,2.19,0,0,0,2.192-2.182V157.74A.363.363,0,0,0,143.189,157.376Zm-4.845-12.133a2.681,2.681,0,0,1,1.645-.676.913.913,0,0,1,.594.173.529.529,0,0,1,.182.428,1.94,1.94,0,0,1-.776,1.318c-.834.707-1.85.832-2.239.5a.525.525,0,0,1-.182-.425A1.937,1.937,0,0,1,138.344,145.243Zm-.776,2.481a1.8,1.8,0,0,0,.78.166,3.411,3.411,0,0,0,2.116-.851,3.55,3.55,0,0,0,.3-.292v5.273h-3.2Zm-.908,5.025h5.014v4.627H136.66Zm-.366,5.354h6.529v.975h-7.312V158.1Zm5.068,9.008h-4.389a1.461,1.461,0,0,1-1.461-1.455v-5.849h7.312v5.849A1.461,1.461,0,0,1,141.361,167.111Z" transform="translate(-134.78 -143.838)" fill="#fcc000"/>
      </g>
      <g id="Group_1432" data-name="Group 1432" transform="translate(145.642 148.609)">
        <path id="Path_553" data-name="Path 553" d="M149.69,146.7h-8.044a.366.366,0,0,0-.366.366v11.755a2.2,2.2,0,0,0,2.194,2.194h4.387a2.2,2.2,0,0,0,2.2-2.194V147.069A.367.367,0,0,0,149.69,146.7Zm-.366.731v.982h-7.314v-.982Zm-1.463,12.854h-4.387a1.465,1.465,0,0,1-1.463-1.463v-9.678h7.314v9.678A1.465,1.465,0,0,1,147.861,160.287Z" transform="translate(-141.28 -146.703)" fill="#fcc000"/>
      </g>
    </g>
  </g>
</svg>
