<svg xmlns="http://www.w3.org/2000/svg" width="30" height="30" viewBox="0 0 30 30">
  <g id="Group_1494" data-name="Group 1494" transform="translate(14259.683 9551.68)">
    <rect id="Rectangle_297" data-name="Rectangle 297" width="30" height="30" transform="translate(-14259.683 -9551.68)" fill="none"/>
    <g id="Group_1466" data-name="Group 1466" transform="translate(-14390.469 -9763.594)">
      <g id="Group_1404" data-name="Group 1404" transform="translate(135.562 214.914)">
        <path id="Path_528" data-name="Path 528" d="M153.193,224.652h-1.145q.141-.617.316-1.195a2.475,2.475,0,0,0-.97-4.8,2.426,2.426,0,0,0-2.811-1.972,2.494,2.494,0,0,0-4.73-.136,2.135,2.135,0,0,0-1.334.052,2.229,2.229,0,0,0-4.105,1.2c0,.039,0,.076,0,.112a1.86,1.86,0,0,0-1.037,1.5,2.443,2.443,0,0,0,.29,4.782c1.126,4.464.89,10.357-.727,14.205a.367.367,0,0,0,.337.505h15.268a.363.363,0,0,0,.334-.505,16.4,16.4,0,0,1-.834-2.68h1.145a2.821,2.821,0,0,0,2.818-2.818V227.47A2.821,2.821,0,0,0,153.193,224.652Zm-16.9-2.868a1.719,1.719,0,0,1,1.505-1.7.362.362,0,0,0,.317-.4l-.008-.064a.387.387,0,0,1,0-.045,1.123,1.123,0,0,1,.812-1.071.367.367,0,0,0,.257-.418,1.416,1.416,0,0,1-.029-.28,1.5,1.5,0,0,1,2.883-.587.362.362,0,0,0,.217.2.358.358,0,0,0,.3-.029,1.448,1.448,0,0,1,1.4-.03.359.359,0,0,0,.326,0,.355.355,0,0,0,.195-.262,1.766,1.766,0,0,1,3.491.084.366.366,0,0,0,.171.264.354.354,0,0,0,.312.032,1.731,1.731,0,0,1,.577-.1,1.7,1.7,0,0,1,1.7,1.693.362.362,0,0,0,.441.354,1.749,1.749,0,1,1-1.077,2.685.363.363,0,0,0-.515-.092,1.277,1.277,0,0,1-1.655-.153.366.366,0,0,0-.5-.025,1.722,1.722,0,0,1-1.46.388.364.364,0,0,0-.329.1,2.077,2.077,0,0,1-3.385-.626.363.363,0,0,0-.608-.094,1.359,1.359,0,0,1-1.5.411.361.361,0,0,0-.462.243,1.717,1.717,0,0,1-3.367-.48Zm1.526,16.4a26.137,26.137,0,0,0,.6-13.994,2.468,2.468,0,0,0,1.818-1.395,2.068,2.068,0,0,0,1.557-.373,2.8,2.8,0,0,0,4.2.545,2.45,2.45,0,0,0,1.626-.386,2.01,2.01,0,0,0,2.063.2,2.474,2.474,0,0,0,1.843.822l.05,0a26.077,26.077,0,0,0,.445,14.58Zm17.47-5.275a2.093,2.093,0,0,1-2.093,2.09H151.9a26.788,26.788,0,0,1,0-9.622h1.294a2.094,2.094,0,0,1,2.093,2.091Z" transform="translate(-135.562 -214.914)" fill="#fcc000"/>
      </g>
      <g id="Group_1405" data-name="Group 1405" transform="translate(147.775 224.233)">
        <path id="Path_529" data-name="Path 529" d="M143.547,220.552a.37.37,0,0,0-.407.324,51.891,51.891,0,0,0,0,11.095.366.366,0,0,0,.364.325.357.357,0,0,0,.042,0,.37.37,0,0,0,.324-.407,51.018,51.018,0,0,1,0-10.93A.369.369,0,0,0,143.547,220.552Z" transform="translate(-142.842 -220.55)" fill="#fcc000"/>
      </g>
      <g id="Group_1406" data-name="Group 1406" transform="translate(141.025 224.227)">
        <path id="Path_530" data-name="Path 530" d="M139.145,220.548a.367.367,0,0,0-.324.407,51.071,51.071,0,0,1,0,10.935.37.37,0,0,0,.324.407.357.357,0,0,0,.042,0,.366.366,0,0,0,.364-.325,51.957,51.957,0,0,0,0-11.1A.373.373,0,0,0,139.145,220.548Z" transform="translate(-138.819 -220.546)" fill="#fcc000"/>
      </g>
      <g id="Group_1407" data-name="Group 1407" transform="translate(144.548 224.234)">
        <path id="Path_531" data-name="Path 531" d="M141.284,220.55a.366.366,0,0,0-.366.368v11.012a.367.367,0,0,0,.734,0V220.918A.366.366,0,0,0,141.284,220.55Z" transform="translate(-140.918 -220.55)" fill="#fcc000"/>
      </g>
    </g>
  </g>
</svg>
