<svg xmlns="http://www.w3.org/2000/svg" width="30" height="30" viewBox="0 0 30 30">
  <g id="Group_1484" data-name="Group 1484" transform="translate(14355.221 9700.943)">
    <rect id="Rectangle_287" data-name="Rectangle 287" width="30" height="30" transform="translate(-14355.221 -9700.943)" fill="none"/>
    <g id="Group_1459" data-name="Group 1459" transform="translate(-14484.469 -9785.664)">
      <g id="Group_1436" data-name="Group 1436" transform="translate(152.567 87.721)">
        <path id="Path_556" data-name="Path 556" d="M147.695,87.721H144.75a.365.365,0,0,0-.369.363v23.273a.366.366,0,0,0,.369.364h2.945a.365.365,0,0,0,.367-.364V88.084A.363.363,0,0,0,147.695,87.721Zm-.369,6.648h-2.209v-2.6h2.209Zm0,3.325h-2.209V95.1h2.209Zm0,3.325h-2.209v-2.6h2.209Zm0,3.325h-2.209v-2.6h2.209Zm-2.209.727h2.209v2.6h-2.209Zm0-16.623h2.209v2.6h-2.209Zm2.209,22.546h-2.209v-2.6h2.209Z" transform="translate(-144.381 -87.721)" fill="#fcc000"/>
      </g>
      <g id="Group_1437" data-name="Group 1437" transform="translate(132.248 87.721)">
        <path id="Path_557" data-name="Path 557" d="M135.562,87.721h-2.945a.365.365,0,0,0-.369.363v23.273a.366.366,0,0,0,.369.364h2.945a.366.366,0,0,0,.369-.364V88.084A.365.365,0,0,0,135.562,87.721Zm-.369,6.648h-2.209v-2.6h2.209Zm0,3.325h-2.209V95.1h2.209Zm0,3.325h-2.209v-2.6h2.209Zm0,3.325h-2.209v-2.6h2.209Zm-2.209.727h2.209v2.6h-2.209Zm0-16.623h2.209v2.6h-2.209Zm2.209,22.546h-2.209v-2.6h2.209Z" transform="translate(-132.248 -87.721)" fill="#fcc000"/>
      </g>
      <g id="Group_1438" data-name="Group 1438" transform="translate(137.438 88.72)">
        <path id="Path_558" data-name="Path 558" d="M147.3,88.309H137.1a1.712,1.712,0,0,0-1.711,1.711v6.886a1.713,1.713,0,0,0,1.711,1.711h10.2a1.714,1.714,0,0,0,1.711-1.711V90.02A1.713,1.713,0,0,0,147.3,88.309Zm.974,8.6a.975.975,0,0,1-.974.975H137.1a.977.977,0,0,1-.975-.975V90.02a.977.977,0,0,1,.975-.975h10.2a.975.975,0,0,1,.974.975Z" transform="translate(-135.39 -88.309)" fill="#fcc000"/>
      </g>
      <g id="Group_1439" data-name="Group 1439" transform="translate(137.438 100.412)">
        <path id="Path_559" data-name="Path 559" d="M147.3,95.365H137.1a1.713,1.713,0,0,0-1.711,1.713v6.886a1.713,1.713,0,0,0,1.711,1.711h10.2a1.714,1.714,0,0,0,1.711-1.711V97.078A1.714,1.714,0,0,0,147.3,95.365Zm.974,8.6a.975.975,0,0,1-.974.974H137.1a.976.976,0,0,1-.975-.974V97.078a.977.977,0,0,1,.975-.975h10.2a.975.975,0,0,1,.974.975Z" transform="translate(-135.39 -95.365)" fill="#fcc000"/>
      </g>
    </g>
  </g>
</svg>
