<svg xmlns="http://www.w3.org/2000/svg" width="30" height="30" viewBox="0 0 30 30">
  <g id="Group_1492" data-name="Group 1492" transform="translate(14366.157 9543.714)">
    <rect id="Rectangle_295" data-name="Rectangle 295" width="30" height="30" transform="translate(-14366.157 -9543.714)" fill="none"/>
    <g id="Group_1461" data-name="Group 1461" transform="translate(-14497.769 -9773.936)">
      <g id="Group_1398" data-name="Group 1398" transform="translate(134.611 240.097)">
        <path id="Path_523" data-name="Path 523" d="M157.756,239.753a3.65,3.65,0,0,0-4.117-.772c.233-.332.5-.679.809-1.043a.363.363,0,0,0-.277-.6H137.09a.365.365,0,0,0-.331.21.369.369,0,0,0,.052.389c2.632,3.108,2.415,4.977,2.205,6.787-.208,1.766-.4,3.447,2.162,5.787h-6.2a.363.363,0,0,0-.364.361c0,1.589,3.988,2.592,5.59,2.744v.419a.363.363,0,0,0,.363.364H150.7a.362.362,0,0,0,.361-.364v-.419c1.6-.153,5.589-1.156,5.589-2.744a.362.362,0,0,0-.363-.361h-6.2a7.378,7.378,0,0,0,1.9-2.468,4.237,4.237,0,0,1,3.222-2.486,4.6,4.6,0,0,0,2.492-1.357A3.254,3.254,0,0,0,157.756,239.753ZM150.7,252.911a.366.366,0,0,0-.368.364v.4h-9.4v-.4a.364.364,0,0,0-.364-.364c-1.249,0-4.275-.856-5.045-1.672h20.22C154.972,252.056,151.944,252.911,150.7,252.911Zm-1.729-2.4h-6.678c-2.937-2.389-2.767-3.855-2.553-5.7a7.9,7.9,0,0,0-1.888-6.742h15.558a7.914,7.914,0,0,0-1.886,6.742,5.4,5.4,0,0,1-.2,2.932l-.013.025,0,.02A7.647,7.647,0,0,1,148.969,250.512Zm8.166-6.777A3.917,3.917,0,0,1,155,244.861a5.61,5.61,0,0,0-2.645,1.355,11.386,11.386,0,0,0-.109-1.491,6.882,6.882,0,0,1,.733-4.69c1.844-.891,3.276-.819,4.249.216A2.534,2.534,0,0,1,157.135,243.735Z" transform="translate(-134.611 -237.339)" fill="#fcc000"/>
      </g>
      <g id="Group_1399" data-name="Group 1399" transform="translate(144.723 233.285)">
        <path id="Path_524" data-name="Path 524" d="M141.323,236.333a1.211,1.211,0,0,1,0,1.868.365.365,0,0,0,.244.637.357.357,0,0,0,.24-.092,1.935,1.935,0,0,0,0-2.955,1.211,1.211,0,0,1,0-1.868.366.366,0,0,0,.029-.514.362.362,0,0,0-.512-.03,1.935,1.935,0,0,0,0,2.955Z" transform="translate(-140.637 -233.285)" fill="#fcc000"/>
      </g>
      <g id="Group_1400" data-name="Group 1400" transform="translate(149.498 233.285)">
        <path id="Path_525" data-name="Path 525" d="M144.168,236.333a1.211,1.211,0,0,1,0,1.868.366.366,0,0,0-.032.514.37.37,0,0,0,.272.123.359.359,0,0,0,.244-.092,1.936,1.936,0,0,0,0-2.956,1.211,1.211,0,0,1,0-1.868.364.364,0,1,0-.484-.544,1.935,1.935,0,0,0,0,2.955Z" transform="translate(-143.482 -233.285)" fill="#fcc000"/>
      </g>
      <g id="Group_1401" data-name="Group 1401" transform="translate(139.949 233.285)">
        <path id="Path_526" data-name="Path 526" d="M138.478,236.333a1.214,1.214,0,0,1,0,1.868.364.364,0,1,0,.484.544,1.939,1.939,0,0,0,0-2.955,1.208,1.208,0,0,1,0-1.868.364.364,0,0,0-.484-.544,1.935,1.935,0,0,0,0,2.955Z" transform="translate(-137.792 -233.285)" fill="#fcc000"/>
      </g>
    </g>
  </g>
</svg>
