<svg xmlns="http://www.w3.org/2000/svg" width="30" height="30" viewBox="0 0 30 30">
  <g id="Group_1482" data-name="Group 1482" transform="translate(14354.516 9738.783)">
    <rect id="Rectangle_285" data-name="Rectangle 285" width="30" height="30" transform="translate(-14354.516 -9738.783)" fill="none"/>
    <g id="Group_1455" data-name="Group 1455" transform="translate(-14481.814 -9791.532)">
      <path id="Path_527" data-name="Path 527" d="M152.31,64.8a.364.364,0,0,0-.369-.05c-.069.03-.144.057-.217.087l.53-4.52a.367.367,0,0,0-.319-.4l-.975-.116.218-2.912a.365.365,0,0,0-.336-.391l-2.634-.2a.365.365,0,0,0-.389.336l-.386,5.155-.7-.052.311-2.89a.377.377,0,0,0-.079-.267.364.364,0,0,0-.245-.134l-2.623-.284a.365.365,0,0,0-.4.324l-.237,2.192-1.272-.136.178-2.917a.37.37,0,0,0-.091-.264.364.364,0,0,0-.252-.121l-2.3-.141.047-.8a.362.362,0,0,0-.341-.384L136.8,55.75a.363.363,0,0,0-.384.341l-.143,2.383-1.888.218a.36.36,0,0,0-.243.134.368.368,0,0,0-.076.269l.2,1.732L132.751,61a.38.38,0,0,0-.243.136.368.368,0,0,0-.076.269l.393,3.411c-.057-.022-.116-.044-.17-.067a.363.363,0,0,0-.5.4l2.308,12.99a.361.361,0,0,0,.215.272,22.32,22.32,0,0,0,15.24,0,.363.363,0,0,0,.217-.272l2.306-12.99A.363.363,0,0,0,152.31,64.8Zm-1.348.294a17.471,17.471,0,0,1-1.866.425l.19-2.55.305-2.6,1.9.223Zm-2.87.943a3.817,3.817,0,0,1-1.786,3.067l.522-4.851a.375.375,0,0,0-.079-.269.354.354,0,0,0-.178-.111l.106-1.413,1.907.144-.022.294-.331,2.813a.366.366,0,0,0-.143.285A.211.211,0,0,0,148.092,66.036ZM137.481,68.4l-.269-7.147,1.912-.072.319,8.555A5.559,5.559,0,0,1,137.481,68.4ZM140.192,70l-.228-6.1,1.91-.071.242,6.462A7.483,7.483,0,0,1,140.192,70Zm1.645-8.762,1.9.2-.91,8.46-.243-6.467a.363.363,0,0,0-.376-.349l-.574.02Zm2.328,3.1,1.9.2-.539,5.034a7.081,7.081,0,0,1-1.991.623Zm4.354-7.281,1.907.143-.188,2.521-.921-.107a.363.363,0,0,0-.4.317l-.23,1.959-.52-.039Zm-2.234,2.078-.5,4.646-1.549-.166.264-2.454a.366.366,0,0,0-.079-.267.361.361,0,0,0-.233-.131l.2-1.831Zm-4.817,1.353a.362.362,0,0,0-.316.314l-.25,2.335-.975.037-.089-2.373a.357.357,0,0,0-.285-.336l.159-2.628,1.908.114ZM137.118,56.5l1.908.116-.233,3.854-1.178.044-.208-1.8a.363.363,0,0,0-.4-.319h0Zm-.393,2.659.159,1.381-.064,0a.355.355,0,0,0-.252.116.365.365,0,0,0-.1.26l.235,6.222a3.126,3.126,0,0,1-.2-1.089l0-.054a.364.364,0,0,0-.312-.364c-.228-.035-.446-.07-.663-.107l-.7-6.152Zm-3.53,2.528,1.15-.133.438,3.829c-.436-.092-.836-.195-1.2-.3Zm16.258,16.13a21.659,21.659,0,0,1-14.311,0l-2.159-12.162a17.566,17.566,0,0,0,2.8.653c.181,2.623,3.033,4.715,6.512,4.715s6.331-2.091,6.512-4.715a17.635,17.635,0,0,0,2.8-.653Z" transform="translate(0 0)" fill="#fcc000"/>
    </g>
  </g>
</svg>
