<svg xmlns="http://www.w3.org/2000/svg" width="30" height="30" viewBox="0 0 30 30">
  <g id="Group_1490" data-name="Group 1490" transform="translate(14274.354 9599.991)">
    <rect id="Rectangle_293" data-name="Rectangle 293" width="30" height="30" transform="translate(-14274.354 -9599.991)" fill="none"/>
    <g id="Group_1464" data-name="Group 1464" transform="translate(-14406.469 -9777.404)">
      <path id="Path_555" data-name="Path 555" d="M159.115,196.493a1.079,1.079,0,0,0-.317-.767l-.99-.992a1.113,1.113,0,0,0-.3-.208l.79-.791a1.088,1.088,0,0,0,0-1.536l-.99-.992a1.093,1.093,0,0,0-1.537,0l-3.16,3.162-7.447-7.447,3.162-3.162a1.086,1.086,0,0,0,0-1.534l-.992-.992a1.086,1.086,0,0,0-1.536,0l-.79.791a1.068,1.068,0,0,0-.208-.3l-.992-.992a1.085,1.085,0,0,0-1.536,0l-1.65,1.65-1.558-1.558a.36.36,0,0,0-.512,0l-3.023,3.023a.362.362,0,0,0-.106.255.356.356,0,0,0,.106.255l1.557,1.559-1.65,1.65a1.088,1.088,0,0,0,0,1.536l.992.99a1.02,1.02,0,0,0,.3.21l-.791.791a1.088,1.088,0,0,0,0,1.536l.99.99a1.086,1.086,0,0,0,1.537,0l3.16-3.16,7.447,7.447-3.16,3.162a1.083,1.083,0,0,0,0,1.534l.99.992a1.088,1.088,0,0,0,1.536,0l.791-.791a1.112,1.112,0,0,0,.208.3l.992.99a1.088,1.088,0,0,0,1.536,0l1.65-1.65,1.255,1.255a.363.363,0,0,0,.512,0l3.023-3.023a.363.363,0,0,0,0-.512l-1.255-1.255,1.65-1.65A1.077,1.077,0,0,0,159.115,196.493ZM136.294,184.1l2.509-2.511,1.3,1.3-2.511,2.511Zm.643,5.478-.992-.99a.363.363,0,0,1,0-.512l6.834-6.834a.363.363,0,0,1,.257-.106.36.36,0,0,1,.255.106l.992.992a.361.361,0,0,1,0,.51l-6.834,6.834A.361.361,0,0,1,136.937,189.58Zm1.014,3.526a.361.361,0,0,1-.51,0l-.992-.992a.361.361,0,0,1,0-.51l1.512-1.512,6.834-6.834,1.511-1.511a.363.363,0,0,1,.512,0l.99.99a.36.36,0,0,1,0,.512Zm4.186-3.16,2.511-2.511,7.447,7.447-2.511,2.511Zm5.789,13.135a.372.372,0,0,1-.512,0l-.99-.992a.363.363,0,0,1,0-.512l9.857-9.855a.359.359,0,0,1,.255-.107.374.374,0,0,1,.257.106l.99.992a.359.359,0,0,1,.106.255.366.366,0,0,1-.106.257l-1.511,1.51h0l-3.419,3.417Zm9.711-2.657-2.511,2.509-1-1,2.511-2.509Zm.65-3.674-6.834,6.834a.372.372,0,0,1-.512,0l-.992-.992a.366.366,0,0,1,0-.512l6.834-6.834a.365.365,0,0,1,.514,0l.99.992a.362.362,0,0,1,.106.255A.366.366,0,0,1,158.286,196.75Z" transform="translate(0 0)" fill="#fcc000"/>
    </g>
  </g>
</svg>
