<svg xmlns="http://www.w3.org/2000/svg" width="30" height="30" viewBox="0 0 30 30">
  <g id="Group_1495" data-name="Group 1495" transform="translate(14270.606 9490.677)">
    <rect id="Rectangle_298" data-name="Rectangle 298" width="30" height="30" transform="translate(-14270.606 -9490.677)" fill="none"/>
    <g id="Group_1465" data-name="Group 1465" transform="translate(-14400.469 -9760.742)">
      <g id="Group_1442" data-name="Group 1442" transform="translate(134.953 273.065)">
        <path id="Path_562" data-name="Path 562" d="M141.3,280.612a1.453,1.453,0,0,1-.346-.94v-6.243a.366.366,0,0,0-.367-.364h-2.479a.366.366,0,0,0-.367.364v6.243a1.453,1.453,0,0,1-.346.94l-1.924,2.256a2.176,2.176,0,0,0-.519,1.409V296.7a.365.365,0,0,0,.366.364h8.059a.365.365,0,0,0,.367-.364V284.277a2.178,2.178,0,0,0-.52-1.409Zm-2.825-6.82h1.745v4.333h-1.745Zm-2.79,22.545v-12.06a1.455,1.455,0,0,1,.347-.941l1.923-2.255a2.184,2.184,0,0,0,.52-1.409v-.819h1.745v.819a2.174,2.174,0,0,0,.521,1.408l1.923,2.256a1.455,1.455,0,0,1,.347.941v1.213h-4.9a.365.365,0,0,0-.367.364v5.939a.366.366,0,0,0,.367.364h4.9v4.181Zm7.327-4.909h-4.537v-5.211h4.537Z" transform="translate(-134.953 -273.065)" fill="#fcc000"/>
      </g>
      <g id="Group_1443" data-name="Group 1443" transform="translate(145.857 279.803)">
        <path id="Path_563" data-name="Path 563" d="M153.46,282.883a.16.16,0,0,0,0-.023l0-.01c.028-.356.048-.717.048-1.09a13.323,13.323,0,0,0-.21-2.359.365.365,0,0,0-.361-.3h-7.774a.366.366,0,0,0-.361.3,13.423,13.423,0,0,0-.209,2.359c0,.371.019.733.047,1.09l0,.01a.236.236,0,0,0,0,.025c.289,3.592,1.935,6.32,4.04,6.606V292.7a2.933,2.933,0,0,1-2.93,2.93.367.367,0,0,0,0,.733h6.594a.367.367,0,1,0,0-.733,2.933,2.933,0,0,1-2.93-2.93v-3.206C151.525,289.2,153.172,286.476,153.46,282.883Zm-7.985-3.053h7.155a12.7,12.7,0,0,1,.147,1.93c0,.248-.008.492-.022.733h-7.4q-.022-.363-.023-.733A12.851,12.851,0,0,1,145.475,279.83Zm-.06,3.4h7.274c-.369,3.134-1.883,5.563-3.637,5.563S145.784,286.361,145.415,283.227Zm4.738,12.4h-2.2a3.681,3.681,0,0,0,1.1-1.334A3.7,3.7,0,0,0,150.154,295.628Z" transform="translate(-144.596 -279.099)" fill="#fcc000"/>
      </g>
    </g>
  </g>
</svg>
