<svg xmlns="http://www.w3.org/2000/svg" width="30" height="30" viewBox="0 0 30 30">
  <g id="Group_1364" data-name="Group 1364" transform="translate(-8097.692 -3546.187)">
    <rect id="Rectangle_275" data-name="Rectangle 275" width="30" height="30" transform="translate(8097.692 3546.187)" fill="none"/>
    <g id="maps-and-flags_3_" data-name="maps-and-flags (3)" transform="translate(8033.427 3549.187)">
      <g id="Group_252" data-name="Group 252" transform="translate(70.573)">
        <path id="Path_75" data-name="Path 75" d="M79.265,0a8.7,8.7,0,0,0-8.692,8.692c0,5.948,7.778,14.68,8.11,15.049a.783.783,0,0,0,1.165,0c.331-.369,8.11-9.1,8.11-15.049A8.7,8.7,0,0,0,79.265,0Zm0,13.065a4.373,4.373,0,1,1,4.373-4.373A4.378,4.378,0,0,1,79.265,13.065Z" transform="translate(-70.573)" fill="#212121"/>
      </g>
    </g>
  </g>
</svg>
