<svg xmlns="http://www.w3.org/2000/svg" width="30" height="30" viewBox="0 0 30 30">
  <g id="Group_1486" data-name="Group 1486" transform="translate(14350.432 9660.657)">
    <rect id="Rectangle_289" data-name="Rectangle 289" width="30" height="30" transform="translate(-14350.432 -9660.657)" fill="none"/>
    <g id="Group_1456" data-name="Group 1456" transform="translate(-14480.217 -9783.413)">
      <path id="Path_532" data-name="Path 532" d="M156.669,131.592c-2.009-4.713-5.8-4.654-6.945-4.516a2.036,2.036,0,0,0-2.113-1.309,11.677,11.677,0,0,0-4.338,1.418,1.83,1.83,0,0,0-2.1-.712,12.709,12.709,0,0,0-7.671,7.671,1.829,1.829,0,0,0,.712,2.1,11.706,11.706,0,0,0-1.416,4.34A2.038,2.038,0,0,0,134.1,142.7c-.136,1.148-.195,4.936,4.518,6.945a1.368,1.368,0,0,0,1.406-.185,1.448,1.448,0,0,0,.532-1.368,9.433,9.433,0,0,1,.289-4.045,2.278,2.278,0,0,0,1.579-1.38,6.548,6.548,0,0,1,.883-1.573,1.9,1.9,0,0,0,.592.1,1.845,1.845,0,0,0,1.551-.824,6.88,6.88,0,0,1,1.942-1.942,1.86,1.86,0,0,0,.723-2.143,6.659,6.659,0,0,1,1.574-.883,2.274,2.274,0,0,0,1.376-1.579,9.5,9.5,0,0,1,4.045-.289,1.445,1.445,0,0,0,1.371-.532A1.376,1.376,0,0,0,156.669,131.592ZM139.843,148.2a.7.7,0,0,1-.263.68.645.645,0,0,1-.671.089c-4.2-1.791-4.223-5-4.1-6.084l2.457.582,2.454.584h0l.341.082A10.165,10.165,0,0,0,139.843,148.2Zm1.907-5.8a1.591,1.591,0,0,1-1.863.945l-2.717-.646-2.662-.634a1.307,1.307,0,0,1-.987-1.411,11.079,11.079,0,0,1,1.328-4.055l7.794,4.167A7.4,7.4,0,0,0,141.749,142.4ZM147,137.815a7.46,7.46,0,0,0-2.157,2.157,1.14,1.14,0,0,1-1.49.352l-8.47-4.528h0l-.164-.087a1.11,1.11,0,0,1-.525-1.336,11.951,11.951,0,0,1,7.21-7.21,1.112,1.112,0,0,1,.357-.057,1.1,1.1,0,0,1,.975.582l.087.164h0l4.421,8.266.111.206h0v0A1.141,1.141,0,0,1,147,137.815Zm2.432-3.095a7.368,7.368,0,0,0-1.635.893l-4.166-7.794a11.057,11.057,0,0,1,4.053-1.328,1.308,1.308,0,0,1,1.411.985l1.279,5.382A1.588,1.588,0,0,1,149.432,134.72Zm6.48-2.17a.7.7,0,0,1-.68.262,10.176,10.176,0,0,0-4.068.222l-1.249-5.255c1.079-.123,4.295-.1,6.084,4.1A.648.648,0,0,1,155.912,132.55Z" transform="translate(0 0)" fill="#fcc000"/>
    </g>
  </g>
</svg>
