<svg xmlns="http://www.w3.org/2000/svg" width="30" height="30" viewBox="0 0 30 30">
  <g id="Group_1488" data-name="Group 1488" transform="translate(14350.768 9625.922)">
    <rect id="Rectangle_291" data-name="Rectangle 291" width="30" height="30" transform="translate(-14350.768 -9625.922)" fill="none"/>
    <g id="Group_1463" data-name="Group 1463" transform="translate(-14480.298 -9784.628)">
      <path id="Path_554" data-name="Path 554" d="M152.5,168.178c-1.269-1.393-2.5-1.955-3.675-1.673-1.754.424-2.822,2.657-3.29,3.909a7.71,7.71,0,0,1-.207-6.047.369.369,0,0,0-.334-.521h-1.02l.283-1.849a.362.362,0,0,0-.085-.294.367.367,0,0,0-.278-.129h-4.045a.369.369,0,0,0-.363.422l.283,1.849h-1.754a.368.368,0,0,0-.275.613c.175.2,4.244,4.859-.528,9.286a8.044,8.044,0,0,0-1.183,1.373l0,0a.359.359,0,0,0-.081.122,5.622,5.622,0,0,0-.942,3.314c.143,3.874,4.084,7.065,4.252,7.2a.375.375,0,0,0,.231.081h6.244a.377.377,0,0,0,.229-.081c.168-.134,4.11-3.326,4.252-7.2a.506.506,0,0,0,0-.051l.005-.025c0-2.075,1.167-3.3,2.2-4.373C153.856,172.6,155.22,171.169,152.5,168.178Zm-12.222-5.867h3.187l-.234,1.536h-2.718Zm2.84,2.272-.183,1.2h-2.128l-.183-1.2Zm-5.406,9.7c4.242-3.938,2.084-8.156,1.037-9.7h1.132l.248,1.625a.369.369,0,0,0,.365.312h2.757a.368.368,0,0,0,.363-.312l.248-1.625h.613a8.886,8.886,0,0,0,.8,6.921.264.264,0,0,0,.036.064,11.369,11.369,0,0,0,2.189,2.716,7.346,7.346,0,0,1,.906,1,.768.768,0,0,1-.8-.163,1.485,1.485,0,0,0-2.1,0,.768.768,0,0,1-1.06,0,1.488,1.488,0,0,0-2.1,0,.766.766,0,0,1-1.059,0,1.518,1.518,0,0,0-2.1,0,.749.749,0,0,1-1.06,0,1.485,1.485,0,0,0-.835-.416C137.425,174.564,137.562,174.422,137.711,174.284Zm7.883,10.817h-5.978c-.6-.509-3.762-3.351-3.882-6.572a4.927,4.927,0,0,1,.85-2.922.765.765,0,0,1,1.02.032,1.486,1.486,0,0,0,2.1,0,.768.768,0,0,1,1.06,0,1.483,1.483,0,0,0,2.1,0,.75.75,0,0,1,1.059,0,1.52,1.52,0,0,0,2.1,0,.768.768,0,0,1,1.06,0,1.462,1.462,0,0,0,1.726.266,4.88,4.88,0,0,1,.665,2.62C149.358,181.743,146.192,184.592,145.594,185.1Zm6.285-11.5a8.784,8.784,0,0,0-2.017,2.823,5.966,5.966,0,0,0-.6-1.179.339.339,0,0,0-.08-.122l0,0A7.988,7.988,0,0,0,148,173.745a10.936,10.936,0,0,1-2-2.431c.21-.682,1.223-3.668,2.993-4.094.891-.214,1.885.275,2.959,1.454C154.214,171.157,153.286,172.128,151.879,173.6Z" fill="#fcc000"/>
    </g>
  </g>
</svg>
