<svg xmlns="http://www.w3.org/2000/svg" xmlns:xlink="http://www.w3.org/1999/xlink" width="54.923" height="66" viewBox="0 0 54.923 66">
  <defs>
    <filter id="Path_390" x="0" y="0" width="54.923" height="66" filterUnits="userSpaceOnUse">
      <feOffset input="SourceAlpha"/>
      <feGaussianBlur stdDeviation="3" result="blur"/>
      <feFlood flood-opacity="0.322"/>
      <feComposite operator="in" in2="blur"/>
      <feComposite in="SourceGraphic"/>
    </filter>
  </defs>
  <g id="Group_1333" data-name="Group 1333" transform="translate(-4064.079 -6550)">
    <g transform="matrix(1, 0, 0, 1, 4064.08, 6550)" filter="url(#Path_390)">
      <path id="Path_390-2" data-name="Path 390" d="M3593.305-3184.938c0,13.128-18.692,28.77-18.692,28.77s-18.231-15.642-18.231-28.77,8.035-19.23,18.231-19.23S3593.305-3198.066,3593.305-3184.938Z" transform="translate(-3547.38 3213.17)" fill="#efc20e"/>
    </g>
    <g id="Group_1252" data-name="Group 1252" transform="translate(3286.439 5979.5)">
      <rect id="Rectangle_237" data-name="Rectangle 237" width="30" height="30" transform="translate(789.561 583)" fill="none"/>
      <g id="video_1_" data-name="video (1)" transform="translate(794 586)">
        <path id="Path_346" data-name="Path 346" d="M20.652,9.688H4.66l15.361-4.45a.469.469,0,0,0,.32-.581l-.8-2.775A2.624,2.624,0,0,0,17.027,0a2.6,2.6,0,0,0-.722.1L1.883,4.281A2.615,2.615,0,0,0,.1,7.512l.785,2.711V21.391A2.612,2.612,0,0,0,3.5,24H9.13a.469.469,0,1,0,0-.937H3.5a1.673,1.673,0,0,1-1.671-1.671V15.012H20.184v6.379a1.673,1.673,0,0,1-1.671,1.671H12.88a.469.469,0,0,0,0,.937h5.633a2.612,2.612,0,0,0,2.609-2.609V10.157a.469.469,0,0,0-.469-.469Zm-8.266,4.387,1.992-3.449h2.59l-1.991,3.449Zm-3.673,0,1.992-3.449H13.3L11.3,14.075Zm-3.673,0,1.991-3.449H9.623L7.631,14.075ZM6.784,8.007,3.449,4.8l2.5-.724a.465.465,0,0,0,.062.072l3.335,3.2-2.5.724a.467.467,0,0,0-.062-.072Zm6.281-5.9,3.335,3.2-2.5.724a.457.457,0,0,0-.062-.072L10.5,2.759,13,2.036A.465.465,0,0,0,13.065,2.108ZM9.537,3.13l3.335,3.2-2.5.724a.457.457,0,0,0-.062-.072l-3.335-3.2,2.5-.724A.5.5,0,0,0,9.537,3.13ZM16.566,1a1.657,1.657,0,0,1,.461-.066,1.682,1.682,0,0,1,1.609,1.206l.673,2.325-1.881.545a.476.476,0,0,0-.062-.072l-3.335-3.2ZM1.147,5.981a1.659,1.659,0,0,1,1-.8l.275-.08a.477.477,0,0,0,.062.072l3.335,3.2-4.139,1.2L1,7.251a1.659,1.659,0,0,1,.144-1.27Zm.679,4.644H5.95L3.958,14.075H1.826ZM16.06,14.075l1.991-3.449h2.132v3.449Zm0,0" transform="translate(0 0)" fill-rule="evenodd"/>
        <path id="Path_347" data-name="Path 347" d="M201.145,347.251a.471.471,0,0,0-.235-.408l-4.137-2.389a.471.471,0,0,0-.706.408v4.777a.471.471,0,0,0,.706.408l4.137-2.388A.471.471,0,0,0,201.145,347.251Zm-4.137,1.573v-3.146l2.724,1.573Zm0,0" transform="translate(-186.889 -328.284)" fill-rule="evenodd"/>
        <path id="Path_348" data-name="Path 348" d="M225.244,492a.471.471,0,1,0,.471.471A.472.472,0,0,0,225.244,492Zm0,0" transform="translate(-214.239 -468.942)" fill-rule="evenodd"/>
      </g>
    </g>
  </g>
</svg>
