<svg xmlns="http://www.w3.org/2000/svg" width="30" height="30" viewBox="0 0 30 30">
  <g id="Group_1491" data-name="Group 1491" transform="translate(14362.897 9583.15)">
    <rect id="Rectangle_294" data-name="Rectangle 294" width="30" height="30" transform="translate(-14362.897 -9583.15)" fill="none"/>
    <g id="Group_1460" data-name="Group 1460" transform="translate(-14494.362 -9777.558)">
      <path id="Path_560" data-name="Path 560" d="M158.1,218.861h-1.455v-1.453a.364.364,0,0,0-.364-.364h-.832a45.938,45.938,0,0,0-.123-11.03h.955a.364.364,0,0,0,.364-.364v-1.455H158.1a.364.364,0,0,0,.168-.686l-11.636-6.059a.36.36,0,0,0-.336,0l-11.638,6.059a.364.364,0,0,0,.17.686h1.453v1.455a.364.364,0,0,0,.364.364h.955a46.028,46.028,0,0,0-.123,11.03h-.832a.364.364,0,0,0-.364.364v1.453h-1.453a.364.364,0,0,0-.364.364v1.818a.364.364,0,0,0,.364.364H158.1a.364.364,0,0,0,.363-.364v-1.818A.364.364,0,0,0,158.1,218.861Zm-3.385-1.818h-1.083a45.244,45.244,0,0,1,.121-11.03h.841A45.331,45.331,0,0,1,154.716,217.044Zm-6.223,0a45.332,45.332,0,0,1,.121-11.03h.841a45.3,45.3,0,0,1,.123,11.03Zm-5.139,0a45.332,45.332,0,0,1,.121-11.03h.841a45.331,45.331,0,0,1,.121,11.03Zm-.733,0h-2.59a46.03,46.03,0,0,0-.123-11.03h2.833A46.055,46.055,0,0,0,142.62,217.044Zm2.429-11.03h2.833a45.937,45.937,0,0,0-.123,11.03h-2.59A46.055,46.055,0,0,0,145.049,206.013Zm5.139,0h2.833a46.119,46.119,0,0,0-.123,11.03h-2.588A46.119,46.119,0,0,0,150.188,206.013Zm-3.723-7.831,10.149,5.285h-20.3Zm-9.456,6.012h18.91v1.093H137.01Zm1.326,1.819h.839a45.215,45.215,0,0,1,.123,11.03h-1.084A45.216,45.216,0,0,1,138.336,206.013Zm-1.326,11.759h18.91v1.089H137.01Zm20.728,2.907H135.192V219.59h22.545Z" transform="translate(0)" fill="#fcc000"/>
    </g>
  </g>
</svg>
