<svg xmlns="http://www.w3.org/2000/svg" xmlns:xlink="http://www.w3.org/1999/xlink" width="54.923" height="66" viewBox="0 0 54.923 66">
  <defs>
    <filter id="Path_391" x="0" y="0" width="54.923" height="66" filterUnits="userSpaceOnUse">
      <feOffset input="SourceAlpha"/>
      <feGaussianBlur stdDeviation="3" result="blur"/>
      <feFlood flood-opacity="0.322"/>
      <feComposite operator="in" in2="blur"/>
      <feComposite in="SourceGraphic"/>
    </filter>
  </defs>
  <g id="Group_1348" data-name="Group 1348" transform="translate(-4064.079 -6640)">
    <g transform="matrix(1, 0, 0, 1, 4064.08, 6640)" filter="url(#Path_391)">
      <path id="Path_391-2" data-name="Path 391" d="M3593.305-3184.938c0,13.128-18.692,28.77-18.692,28.77s-18.231-15.642-18.231-28.77,8.035-19.23,18.231-19.23S3593.305-3198.066,3593.305-3184.938Z" transform="translate(-3547.38 3213.17)" fill="#ff2626"/>
    </g>
    <g id="Group_1258" data-name="Group 1258" transform="translate(748.126 689.981)">
      <rect id="Rectangle_246" data-name="Rectangle 246" width="30" height="30" transform="translate(3327.874 5962.019)" fill="none"/>
      <g id="Group_1229" data-name="Group 1229" transform="translate(3190.029 4660.934)">
        <path id="Path_381" data-name="Path 381" d="M164.365,1309.874l-10.946-5.668a1.247,1.247,0,0,0-1.147,0l-10.946,5.668a.651.651,0,0,0-.354.581v.745a.653.653,0,0,0,.493.635.122.122,0,0,1,.092.118v.416a.936.936,0,0,0,.932.932h1.18a.122.122,0,0,1,.121.121v10.894a.123.123,0,0,1-.112.121.939.939,0,0,0-.859.93v.391a.122.122,0,0,1-.121.121h-.448a.689.689,0,0,0-.688.688v.847a.689.689,0,0,0,.688.688h9.778a.394.394,0,1,0,0-.787h-9.562a.121.121,0,0,1-.121-.121v-.416a.121.121,0,0,1,.121-.121h20.762a.122.122,0,0,1,.121.121v.416a.122.122,0,0,1-.121.121h-9.563a.394.394,0,1,0,0,.787h9.778a.69.69,0,0,0,.688-.688v-.847a.69.69,0,0,0-.688-.688h-.449a.121.121,0,0,1-.121-.121v-.392a.939.939,0,0,0-.86-.929.122.122,0,0,1-.111-.121V1319.5a.394.394,0,1,0-.787,0v4.814a.122.122,0,0,1-.121.121h-1.239a.121.121,0,0,1-.121-.121v-10.891a.121.121,0,0,1,.121-.121h1.239a.122.122,0,0,1,.121.121v4.438a.394.394,0,1,0,.787,0v-4.438a.121.121,0,0,1,.121-.121h1.18a.936.936,0,0,0,.932-.932v-.416a.122.122,0,0,1,.091-.118.653.653,0,0,0,.493-.634v-.746A.651.651,0,0,0,164.365,1309.874Zm-20.627,15.347h18.2a.172.172,0,0,1,.146.134v.4a.121.121,0,0,1-.121.12H143.727a.121.121,0,0,1-.121-.121v-.392A.171.171,0,0,1,143.738,1325.221Zm.961-.787a.121.121,0,0,1-.121-.121v-10.891a.121.121,0,0,1,.121-.121h1.239a.122.122,0,0,1,.121.121v10.89a.121.121,0,0,1-.121.121H144.7v.041h0Zm2.182-.032a.118.118,0,0,1-.035-.086v-.432a.121.121,0,0,1,.121-.121h1.721a.122.122,0,0,1,.121.121v.427a.122.122,0,0,1-.121.121l-1.721.005v.041h0v-.041A.12.12,0,0,1,146.881,1324.4Zm1.807-10.43h-1.721a.121.121,0,0,1-.121-.121v-.428a.121.121,0,0,1,.121-.121h1.721a.122.122,0,0,1,.121.121v.428A.122.122,0,0,1,148.688,1313.971Zm-1.721.782h1.721a.122.122,0,0,1,.121.121v7.976a.122.122,0,0,1-.121.121l-1.721.007v.041h0v-.041a.12.12,0,0,1-.086-.035.119.119,0,0,1-.035-.086v-7.983A.121.121,0,0,1,146.967,1314.753Zm2.664,9.648a.118.118,0,0,1-.035-.086v-10.894a.121.121,0,0,1,.121-.121h1.239a.122.122,0,0,1,.121.121v10.89a.122.122,0,0,1-.121.121l-1.239,0v.041h0v-.041A.118.118,0,0,1,149.631,1324.4Zm2.268,0a.119.119,0,0,1-.035-.086v-.435a.121.121,0,0,1,.121-.121h1.721a.122.122,0,0,1,.121.121v.427a.122.122,0,0,1-.121.121l-1.721.008v.041h0v-.041A.12.12,0,0,1,151.9,1324.4Zm1.807-10.43h-1.721a.121.121,0,0,1-.121-.121v-.428a.121.121,0,0,1,.121-.121h1.721a.122.122,0,0,1,.121.121v.428A.122.122,0,0,1,153.706,1313.974Zm-1.721.779h1.721a.122.122,0,0,1,.121.121v7.976a.122.122,0,0,1-.121.121l-1.721.01v.041h0v-.041a.12.12,0,0,1-.086-.036.118.118,0,0,1-.035-.086v-7.986A.121.121,0,0,1,151.985,1314.753Zm2.664,9.651a.119.119,0,0,1-.035-.086v-10.9a.121.121,0,0,1,.121-.121h1.239a.122.122,0,0,1,.121.121v10.89a.122.122,0,0,1-.121.121l-1.239.007v.041h0v-.041A.12.12,0,0,1,154.649,1324.4Zm2.268,0a.118.118,0,0,1-.035-.086v-.438a.121.121,0,0,1,.121-.121h1.721a.122.122,0,0,1,.121.121v.427a.122.122,0,0,1-.121.121l-1.721.011v.041h0v-.041A.12.12,0,0,1,156.917,1324.407Zm1.807-10.43H157a.121.121,0,0,1-.121-.121v-.428a.121.121,0,0,1,.121-.121h1.721a.122.122,0,0,1,.121.121v.428A.122.122,0,0,1,158.724,1313.977Zm-1.721.776h1.721a.122.122,0,0,1,.121.121v7.976a.122.122,0,0,1-.12.121l-1.721.013v.04h0v-.04a.124.124,0,0,1-.086-.034.121.121,0,0,1-.035-.087v-7.989A.121.121,0,0,1,157,1314.753Zm6.344-2.376a.172.172,0,0,1-.134.146H142.475a.177.177,0,0,1-.133-.133v-.4a.121.121,0,0,1,.121-.121h20.762a.122.122,0,0,1,.121.121Zm-10.5-7.517a.454.454,0,0,1,.212.052l10.81,5.6a.12.12,0,0,1,.066.107v.337a.122.122,0,0,1-.121.121H141.879a.122.122,0,0,1-.121-.121v-.337a.12.12,0,0,1,.066-.107l10.809-5.6A.458.458,0,0,1,152.845,1304.861Z" transform="translate(0)"/>
        <path id="Path_382" data-name="Path 382" d="M152.724,1310.25a1.768,1.768,0,0,0,0-3.536h0a1.768,1.768,0,0,0,0,3.536Zm-.982-1.768a.982.982,0,1,1,.982.982v.04h0v-.04A.983.983,0,0,1,151.742,1308.481Z" transform="translate(0.121 0.032)"/>
      </g>
    </g>
  </g>
</svg>
