<svg xmlns="http://www.w3.org/2000/svg" width="30" height="30" viewBox="0 0 30 30">
  <g id="Group_1497" data-name="Group 1497" transform="translate(14318.681 9452.015)">
    <rect id="Rectangle_300" data-name="Rectangle 300" width="30" height="30" transform="translate(-14318.681 -9452.015)" fill="none"/>
    <g id="Group_1454" data-name="Group 1454" transform="translate(-14447.57 -9779.664)">
      <g id="Group_1449" data-name="Group 1449" transform="translate(139.404 333.54)">
        <g id="Group_1448" data-name="Group 1448">
          <path id="Path_568" data-name="Path 568" d="M141.069,347.794a.38.38,0,0,1-.266-.11.376.376,0,0,1,0-.533l13.5-13.5a.377.377,0,1,1,.533.533l-13.5,13.5A.38.38,0,0,1,141.069,347.794Z" transform="translate(-137.961 -333.54)" fill="#fcc000"/>
          <path id="Path_569" data-name="Path 569" d="M146.055,349.071a5.983,5.983,0,0,1-3.043-.83.377.377,0,0,1,.383-.65,5.25,5.25,0,0,0,6.378-.815l3.824-3.822a.377.377,0,1,1,.533.533l-3.822,3.822A6.007,6.007,0,0,1,146.055,349.071Z" transform="translate(-137.549 -332.001)" fill="#fcc000"/>
          <path id="Path_570" data-name="Path 570" d="M140.838,350.793a3.287,3.287,0,0,1-2.338-.968l-.282-.282a.378.378,0,0,1,0-.533l9.02-9.02a.38.38,0,0,1,.267-.11.375.375,0,0,1,.266.11l.282.282a3.305,3.305,0,0,1,0,4.675l-4.878,4.878A3.284,3.284,0,0,1,140.838,350.793Zm-1.819-1.515.014.014a2.553,2.553,0,0,0,3.609,0l4.878-4.878h0a2.553,2.553,0,0,0,0-3.609l-.014-.014Z" transform="translate(-138.108 -332.573)" fill="#fcc000"/>
        </g>
        <path id="Path_571" data-name="Path 571" d="M142.971,346.533a.372.372,0,0,1-.266-.111.376.376,0,0,1,0-.533l1.75-1.751a.377.377,0,1,1,.533.533l-1.75,1.751A.377.377,0,0,1,142.971,346.533Z" transform="translate(-137.369 -331.717)" fill="#fcc000"/>
        <path id="Path_572" data-name="Path 572" d="M142.229,347.024a.377.377,0,0,1-.267-.644l.2-.194a.377.377,0,0,1,.533.533l-.2.194A.372.372,0,0,1,142.229,347.024Z" transform="translate(-137.481 -331.377)" fill="#fcc000"/>
      </g>
      <path id="Path_573" data-name="Path 573" d="M141.01,346.844a3.005,3.005,0,0,1-1.086-.208,3.375,3.375,0,0,1-1.08-.678l-4.815-4.815a.378.378,0,1,1,.533-.534l4.816,4.816a2.332,2.332,0,0,0,2.806.324.377.377,0,1,1,.383.65A3.048,3.048,0,0,1,141.01,346.844Z" transform="translate(0.488 1.168)" fill="#fcc000"/>
      <path id="Path_574" data-name="Path 574" d="M139.943,344.939h-.124a10.424,10.424,0,0,1-2.375-.3.377.377,0,0,1,.2-.728h0c.037.01,3.774,1,6.142-.878a.377.377,0,1,1,.468.592A6.855,6.855,0,0,1,139.943,344.939Z" transform="translate(0.981 1.642)" fill="#fcc000"/>
      <path id="Path_575" data-name="Path 575" d="M132.6,344.354h-.025a.379.379,0,0,1-.274-.147l-.829-1.078a.377.377,0,0,1,.6-.459l.567.737,3.74-3.739-4.653-3.576a.377.377,0,0,1,.459-.6l4.993,3.838a.377.377,0,0,1,.037.565l-4.347,4.347A.374.374,0,0,1,132.6,344.354Z" transform="translate(0 0.362)" fill="#fcc000"/>
    </g>
  </g>
</svg>
