<svg xmlns="http://www.w3.org/2000/svg" width="30" height="30" viewBox="0 0 30 30">
  <g id="Group_1320" data-name="Group 1320" transform="translate(-3458 -5864)">
    <rect id="Rectangle_266" data-name="Rectangle 266" width="30" height="30" transform="translate(3458 5864)" fill="none"/>
    <g id="nail" transform="translate(3460 5867)">
      <g id="Group_1222" data-name="Group 1222" transform="translate(0 0)">
        <path id="Path_378" data-name="Path 378" d="M23.953.494A.8.8,0,0,0,23.211,0H16.447a1.2,1.2,0,0,0-.855.353L13.047,2.891a1.2,1.2,0,0,0,0,1.706l.574.568L10.733,8.011c-.058-.112-.116-.223-.183-.327h0l0-.006-.005-.009-.006-.008a1.927,1.927,0,0,0-.144-.215v0l0-.006a4.522,4.522,0,0,0-.311-.39h0l0-.006,0,0-.029-.03c-.055-.059-.11-.116-.165-.169l-.021-.022h0A4.3,4.3,0,0,0,7.4,5.641a2.341,2.341,0,0,0-.243-.027.51.51,0,0,0-.069-.006.687.687,0,0,0-.094,0l-.036,0h0c-.045,0-.091,0-.138,0h-.8c-.089,0-.178,0-.244.008H5.742a.409.409,0,0,0-.066,0,2.187,2.187,0,0,0-.227.025l-.011,0H5.432A4.31,4.31,0,0,0,2.981,6.816c-.061.058-.119.119-.191.2l-.027.027h0l0,0h0l0,0a3.249,3.249,0,0,0-.3.376l-.005.008,0,0c-.053.075-.105.15-.15.222l-.01.018,0,.006v0a4.319,4.319,0,0,0-.621,1.729A5.208,5.208,0,0,0,.015,13.2v10a.8.8,0,0,0,.8.8h11.2a.8.8,0,0,0,.8-.8v-10a5.209,5.209,0,0,0-.918-2.944l3.44-3.391.58.575a1.22,1.22,0,0,0,1.711,0l6.148-6.073A.8.8,0,0,0,23.953.494ZM2.415,10c0-.123.007-.24.018-.36V9.625c0-.005,0-.011,0-.017h0a3.533,3.533,0,0,1,.536-1.523c.039-.065.082-.125.125-.185a3.785,3.785,0,0,1,.252-.316l.027-.027c.043-.046.087-.091.133-.137l.02-.02h0l0,0a3.536,3.536,0,0,1,2.032-.966,1.645,1.645,0,0,1,.183-.019l.038,0h0c.073,0,.151-.007.228-.007h.8c.035,0,.071,0,.14,0a.521.521,0,0,1,.063,0l.024,0,.041,0a1.787,1.787,0,0,1,.2.021A3.523,3.523,0,0,1,9.3,7.4c.054.05.1.1.153.157l.025.025a3.72,3.72,0,0,1,.249.313l.007.01c.042.059.084.118.127.189a3.332,3.332,0,0,1,.265.514l-2.235,2.2A4.948,4.948,0,0,0,5.072,12.4c-.5.5-.245,1.509.594,2.347a3.116,3.116,0,0,0,1.17.761,1.619,1.619,0,0,0,.509.09.914.914,0,0,0,.668-.257,4.932,4.932,0,0,0,1.593-2.83l.809-.8V15.2a3.976,3.976,0,0,1-.7,2.256,4.509,4.509,0,0,0-2.9-1.056h-.8a4.509,4.509,0,0,0-2.9,1.056,3.976,3.976,0,0,1-.7-2.256V10Zm5.5,1.613.887.879a4.347,4.347,0,0,1-1.355,2.285c-.022.022-.143.046-.359-.026a2.347,2.347,0,0,1-.857-.568c-.584-.584-.671-1.139-.594-1.216A4.363,4.363,0,0,1,7.915,11.613ZM9.2,18.067a3.985,3.985,0,0,1-5.568,0A3.706,3.706,0,0,1,6.015,17.2h.8A3.705,3.705,0,0,1,9.2,18.067ZM12.015,13.2v10H.815v-10a4.4,4.4,0,0,1,.8-2.521V15.2a4.776,4.776,0,0,0,1.148,3.107.369.369,0,0,0,.024.035c.005,0,.012.006.017.011a4.781,4.781,0,0,0,7.222,0c.005,0,.012-.006.017-.011a.369.369,0,0,0,.024-.035A4.776,4.776,0,0,0,11.215,15.2V10.928l.1-.1A4.405,4.405,0,0,1,12.015,13.2Zm-2.8-1.425-.58-.574,2.2-2.164a.385.385,0,0,0,.083-.082l3.274-3.227.188.186.392.388Zm7.85-4.9a.417.417,0,0,1-.585,0l-.861-.853h0L14.471,4.882h0l-.861-.853a.4.4,0,0,1,0-.57L16.156.92A.415.415,0,0,1,16.447.8h6.768Z" transform="translate(0.986 0)" fill="#fcc000"/>
      </g>
    </g>
  </g>
</svg>
