<svg xmlns="http://www.w3.org/2000/svg" width="30" height="30" viewBox="0 0 30 30">
  <g id="Group_1487" data-name="Group 1487" transform="translate(14272.773 9679.335)">
    <rect id="Rectangle_290" data-name="Rectangle 290" width="30" height="30" transform="translate(-14272.773 -9679.335)" fill="none"/>
    <g id="Group_1458" data-name="Group 1458" transform="translate(-14402.469 -9782.411)">
      <g id="Group_1414" data-name="Group 1414" transform="translate(132.694 106.076)">
        <path id="Path_536" data-name="Path 536" d="M154.938,106.076H142.451a1.757,1.757,0,0,0-1.756,1.757v1.151h-6.244a1.76,1.76,0,0,0-1.757,1.757V128.32a1.759,1.759,0,0,0,1.757,1.756h12.486a1.759,1.759,0,0,0,1.757-1.756v-1.153h6.244a1.76,1.76,0,0,0,1.757-1.756V107.833A1.759,1.759,0,0,0,154.938,106.076Zm-6.972,22.244a1.031,1.031,0,0,1-1.029,1.029H134.451a1.03,1.03,0,0,1-1.029-1.029V110.742a1.029,1.029,0,0,1,1.029-1.029h12.486a1.03,1.03,0,0,1,1.029,1.029Zm.728-10.5h0a1.819,1.819,0,0,1,0,3.637h0Zm0,4.362h0a2.545,2.545,0,1,0,0-5.089h0v-2.182h0a4.727,4.727,0,1,1,0,9.455h0Zm7.273,3.224a1.03,1.03,0,0,1-1.029,1.027h-6.244V125.1h0a5.455,5.455,0,0,0,0-10.91h0v-3.446a1.76,1.76,0,0,0-1.757-1.757h-5.515v-1.151a1.03,1.03,0,0,1,1.029-1.031h12.488a1.03,1.03,0,0,1,1.029,1.031Z" transform="translate(-132.694 -106.076)" fill="#fcc000"/>
      </g>
      <g id="Group_1415" data-name="Group 1415" transform="translate(149.409 107.874)">
        <path id="Path_537" data-name="Path 537" d="M145.394,107.145a2.733,2.733,0,1,0,2.731,2.734A2.737,2.737,0,0,0,145.394,107.145Zm0,4.737a2,2,0,1,1,2-2A2.006,2.006,0,0,1,145.394,111.882Z" transform="translate(-142.661 -107.145)" fill="#fcc000"/>
      </g>
      <g id="Group_1416" data-name="Group 1416" transform="translate(150.956 109.422)">
        <path id="Path_538" data-name="Path 538" d="M144.767,108.066a1.184,1.184,0,1,0,1.184,1.186A1.186,1.186,0,0,0,144.767,108.066Zm0,1.64a.455.455,0,1,1,.454-.454A.455.455,0,0,1,144.767,109.706Z" transform="translate(-143.581 -108.066)" fill="#fcc000"/>
      </g>
      <g id="Group_1417" data-name="Group 1417" transform="translate(153.052 114.552)">
        <path id="Path_539" data-name="Path 539" d="M145.192,111.126a.365.365,0,1,0,.363.365A.365.365,0,0,0,145.192,111.126Z" transform="translate(-144.827 -111.126)" fill="#fcc000"/>
      </g>
      <g id="Group_1418" data-name="Group 1418" transform="translate(153.052 124.006)">
        <path id="Path_540" data-name="Path 540" d="M145.192,116.759a.364.364,0,1,0,.363.365A.365.365,0,0,0,145.192,116.759Z" transform="translate(-144.827 -116.759)" fill="#fcc000"/>
      </g>
      <g id="Group_1419" data-name="Group 1419" transform="translate(141.417 110.778)">
        <path id="Path_541" data-name="Path 541" d="M140.627,108.879a2.733,2.733,0,1,0,2.733,2.733A2.735,2.735,0,0,0,140.627,108.879Zm0,4.737a2,2,0,1,1,2-2A2.007,2.007,0,0,1,140.627,113.616Z" transform="translate(-137.894 -108.879)" fill="#fcc000"/>
      </g>
      <g id="Group_1420" data-name="Group 1420" transform="translate(142.964 112.325)">
        <path id="Path_542" data-name="Path 542" d="M140,109.8a1.184,1.184,0,1,0,1.184,1.184A1.187,1.187,0,0,0,140,109.8Zm0,1.64a.456.456,0,1,1,.456-.456A.456.456,0,0,1,140,111.44Z" transform="translate(-138.814 -109.8)" fill="#fcc000"/>
      </g>
      <g id="Group_1421" data-name="Group 1421" transform="translate(135.245 117.073)">
        <path id="Path_543" data-name="Path 543" d="M139.676,112.643a5.465,5.465,0,1,0,5.464,5.464A5.47,5.47,0,0,0,139.676,112.643Zm0,10.2a4.736,4.736,0,1,1,4.736-4.737A4.741,4.741,0,0,1,139.676,122.844Z" transform="translate(-134.211 -112.643)" fill="#fcc000"/>
      </g>
      <g id="Group_1422" data-name="Group 1422" transform="translate(138.146 120)">
        <path id="Path_544" data-name="Path 544" d="M138.5,114.376a2.55,2.55,0,1,0,2.549,2.549A2.552,2.552,0,0,0,138.5,114.376Zm0,4.372a1.821,1.821,0,1,1,1.821-1.823A1.824,1.824,0,0,1,138.5,118.748Z" transform="translate(-135.944 -114.376)" fill="#fcc000"/>
      </g>
      <g id="Group_1423" data-name="Group 1423" transform="translate(134.515 110.778)">
        <path id="Path_545" data-name="Path 545" d="M136.51,114.344a2.733,2.733,0,1,0-2.733-2.733A2.737,2.737,0,0,0,136.51,114.344Zm0-4.737a2,2,0,1,1-2,2A2.007,2.007,0,0,1,136.51,109.607Z" transform="translate(-133.777 -108.879)" fill="#fcc000"/>
      </g>
      <g id="Group_1424" data-name="Group 1424" transform="translate(136.064 112.325)">
        <path id="Path_546" data-name="Path 546" d="M135.882,112.168a1.184,1.184,0,1,0-1.184-1.184A1.186,1.186,0,0,0,135.882,112.168Zm0-1.64a.456.456,0,1,1-.456.456A.456.456,0,0,1,135.882,110.528Z" transform="translate(-134.698 -109.8)" fill="#fcc000"/>
      </g>
      <g id="Group_1425" data-name="Group 1425" transform="translate(135.608 117.46)">
        <path id="Path_547" data-name="Path 547" d="M134.427,113.224a.365.365,0,1,0,.365-.365A.365.365,0,0,0,134.427,113.224Z" transform="translate(-134.427 -112.859)" fill="#fcc000"/>
      </g>
      <g id="Group_1426" data-name="Group 1426" transform="translate(135.608 126.911)">
        <path id="Path_548" data-name="Path 548" d="M134.792,118.493a.364.364,0,1,0,.365.363A.363.363,0,0,0,134.792,118.493Z" transform="translate(-134.427 -118.493)" fill="#fcc000"/>
      </g>
      <g id="Group_1427" data-name="Group 1427" transform="translate(145.057 117.46)">
        <path id="Path_549" data-name="Path 549" d="M140.788,113.224a.364.364,0,1,0-.363.365A.364.364,0,0,0,140.788,113.224Z" transform="translate(-140.06 -112.859)" fill="#fcc000"/>
      </g>
      <g id="Group_1428" data-name="Group 1428" transform="translate(145.057 126.911)">
        <path id="Path_550" data-name="Path 550" d="M140.425,118.493a.364.364,0,1,0,.363.363A.364.364,0,0,0,140.425,118.493Z" transform="translate(-140.06 -118.493)" fill="#fcc000"/>
      </g>
    </g>
  </g>
</svg>
