<svg id="qr-code_6_" data-name="qr-code (6)" xmlns="http://www.w3.org/2000/svg" width="24" height="24" viewBox="0 0 24 24">
  <defs>
    <style>
      .cls-1 {
        fill: #fcc000;
      }
    </style>
  </defs>
  <path id="Path_413" data-name="Path 413" class="cls-1" d="M374,6.75a.75.75,0,0,1-.75-.75V2.156a.657.657,0,0,0-.656-.656H368.75a.75.75,0,1,1,0-1.5h3.844a2.159,2.159,0,0,1,2.156,2.156V6A.75.75,0,0,1,374,6.75Z" transform="translate(-350.75)"/>
  <path id="Path_414" data-name="Path 414" class="cls-1" d="M.75,6.75A.75.75,0,0,1,0,6V2.156A2.159,2.159,0,0,1,2.156,0H6A.75.75,0,0,1,6,1.5H2.156a.657.657,0,0,0-.656.656V6A.75.75,0,0,1,.75,6.75Z"/>
  <path id="Path_415" data-name="Path 415" class="cls-1" d="M6,374.75H2.156A2.159,2.159,0,0,1,0,372.594V368.75a.75.75,0,1,1,1.5,0v3.844a.657.657,0,0,0,.656.656H6a.75.75,0,1,1,0,1.5Z" transform="translate(0 -350.75)"/>
  <path id="Path_416" data-name="Path 416" class="cls-1" d="M372.594,374.75H368.75a.75.75,0,1,1,0-1.5h3.844a.657.657,0,0,0,.656-.656V368.75a.75.75,0,1,1,1.5,0v3.844A2.159,2.159,0,0,1,372.594,374.75Z" transform="translate(-350.75 -350.75)"/>
  <path id="Path_417" data-name="Path 417" class="cls-1" d="M70.094,72.25H66.156A2.159,2.159,0,0,1,64,70.094V66.156A2.159,2.159,0,0,1,66.156,64h3.938a2.159,2.159,0,0,1,2.156,2.156v3.938A2.159,2.159,0,0,1,70.094,72.25ZM66.156,65.5a.657.657,0,0,0-.656.656v3.938a.657.657,0,0,0,.656.656h3.938a.657.657,0,0,0,.656-.656V66.156a.657.657,0,0,0-.656-.656Z" transform="translate(-61 -61)"/>
  <path id="Path_418" data-name="Path 418" class="cls-1" d="M70.094,280.25H66.156A2.159,2.159,0,0,1,64,278.094v-3.938A2.159,2.159,0,0,1,66.156,272h3.938a2.159,2.159,0,0,1,2.156,2.156v3.938A2.159,2.159,0,0,1,70.094,280.25Zm-3.938-6.75a.657.657,0,0,0-.656.656v3.938a.657.657,0,0,0,.656.656h3.938a.657.657,0,0,0,.656-.656v-3.938a.657.657,0,0,0-.656-.656Z" transform="translate(-61 -259.25)"/>
  <path id="Path_419" data-name="Path 419" class="cls-1" d="M278.094,72.25h-3.938A2.159,2.159,0,0,1,272,70.094V66.156A2.159,2.159,0,0,1,274.156,64h3.938a2.159,2.159,0,0,1,2.156,2.156v3.938A2.159,2.159,0,0,1,278.094,72.25Zm-3.938-6.75a.657.657,0,0,0-.656.656v3.938a.657.657,0,0,0,.656.656h3.938a.657.657,0,0,0,.656-.656V66.156a.657.657,0,0,0-.656-.656Z" transform="translate(-259.25 -61)"/>
  <path id="Path_420" data-name="Path 420" class="cls-1" d="M279.031,275.75H277.25v-2.531A1.22,1.22,0,0,0,276.031,272h-2.812A1.22,1.22,0,0,0,272,273.219v2.813a1.22,1.22,0,0,0,1.219,1.219h2.531v1.781a1.22,1.22,0,0,0,1.219,1.219h2.063a1.22,1.22,0,0,0,1.219-1.219v-2.062A1.22,1.22,0,0,0,279.031,275.75ZM273.5,273.5h2.25v2.25H273.5Zm5.25,5.25h-1.5v-1.5h1.5Z" transform="translate(-259.25 -259.25)"/>
  <path id="Path_421" data-name="Path 421" class="cls-1" d="M129.5,130.25h-.75a.75.75,0,0,1-.75-.75v-.75a.75.75,0,0,1,.75-.75h.75a.75.75,0,0,1,.75.75v.75A.75.75,0,0,1,129.5,130.25Z" transform="translate(-122 -122)"/>
  <path id="Path_422" data-name="Path 422" class="cls-1" d="M337.5,130.25h-.75a.75.75,0,0,1-.75-.75v-.75a.75.75,0,0,1,.75-.75h.75a.75.75,0,0,1,.75.75v.75A.75.75,0,0,1,337.5,130.25Z" transform="translate(-320.25 -122)"/>
  <path id="Path_423" data-name="Path 423" class="cls-1" d="M129.5,338.25h-.75a.75.75,0,0,1-.75-.75v-.75a.75.75,0,0,1,.75-.75h.75a.75.75,0,0,1,.75.75v.75A.75.75,0,0,1,129.5,338.25Z" transform="translate(-122 -320.25)"/>
</svg>
