<svg xmlns="http://www.w3.org/2000/svg" width="30" height="30" viewBox="0 0 30 30">
  <g id="Group_1493" data-name="Group 1493" transform="translate(14319.424 9550.426)">
    <rect id="Rectangle_296" data-name="Rectangle 296" width="30" height="30" transform="translate(-14319.424 -9550.426)" fill="none"/>
    <path id="Path_576" data-name="Path 576" d="M150.643,262.522a1.491,1.491,0,0,0,2.111-.063c.029-.6,8.545-7.117,5.856-7.465-.5-.322-5.46,5.787-5.972,5.467-.421-.959,7.46-5.952,4.781-6.657a.683.683,0,0,0-.483.2c-.156-.159-5.755,6.542-5.457,4.967.1-.224,5.71-5.483,5.392-5.732-.46-2.619-5.673,4.753-6.308,4.813-.859.763-2.309,2.16-1.116,3.259-.7.661-1.522,1.443-2.4,2.285L136.28,252.726c-2.906,3.908,5.863,10.8,9.235,12.338-3.04,2.915-7.384,7.105-9.721,9.288-1.686,7.853,9.313-6.542,11.448-8.309,1.655,1.294,12.773,16.184,11.188,8.264l-10.092-9.433c.828-.883,1.6-1.707,2.247-2.41ZM136.3,255.377a2.989,2.989,0,0,1-.118-2.107l10.535,10.642c-.276.262-.555.531-.846.8C142.747,263.537,137.511,258.782,136.3,255.377Zm22.156,20.2c-2.746,1.8-8.055-8.014-10.9-9.868l.474-.507C148.133,265.558,159.422,275.2,158.455,275.582Zm-8.042-13.6c-1.614.947-15.717,19.034-14.31,12.7,2.985-3.456,11.734-9.943,13.632-13.723-1.612-1.255,5.984-6.908,6.33-7.829a.2.2,0,1,1,.276.276c-.207.62-6.316,5.4-5.2,6.184.757,1.137,5.556-5.089,6.119-5.265,1.739.18-7.492,6.2-4.491,6.638.24.341,5.471-5.354,5.681-5.445,1.585-.282-6.2,6.465-6.015,6.621C151.685,263.013,151.021,261.923,150.413,261.983Z" transform="translate(-14451.8 -9800.104)" fill="#fcc000"/>
  </g>
</svg>
