<svg xmlns="http://www.w3.org/2000/svg" xmlns:xlink="http://www.w3.org/1999/xlink" width="54.923" height="66" viewBox="0 0 54.923 66">
  <defs>
    <filter id="Path_392" x="0" y="0" width="54.923" height="66" filterUnits="userSpaceOnUse">
      <feOffset input="SourceAlpha"/>
      <feGaussianBlur stdDeviation="3" result="blur"/>
      <feFlood flood-opacity="0.322"/>
      <feComposite operator="in" in2="blur"/>
      <feComposite in="SourceGraphic"/>
    </filter>
  </defs>
  <g id="Group_1343" data-name="Group 1343" transform="translate(-4064.079 -6723)">
    <g transform="matrix(1, 0, 0, 1, 4064.08, 6723)" filter="url(#Path_392)">
      <path id="Path_392-2" data-name="Path 392" d="M3593.305-3184.938c0,13.128-18.692,28.77-18.692,28.77s-18.231-15.642-18.231-28.77,8.035-19.23,18.231-19.23S3593.305-3198.066,3593.305-3184.938Z" transform="translate(-3547.38 3213.17)" fill="#00ffa8"/>
    </g>
    <g id="Group_1265" data-name="Group 1265" transform="translate(744.32 729.5)">
      <rect id="Rectangle_243" data-name="Rectangle 243" width="30" height="30" transform="translate(3331.68 6007.5)" fill="none"/>
      <g id="hair" transform="translate(3334.18 6010)">
        <g id="Group_1217" data-name="Group 1217" transform="translate(0)">
          <g id="Group_1216" data-name="Group 1216">
            <path id="Path_375" data-name="Path 375" d="M24.674.326l0,0A1.12,1.12,0,0,0,23.888,0h0a1.111,1.111,0,0,0-.693.243c-2.659,2.124-5.327,4.315-7.932,6.515q-.95.8-1.9,1.616l-7.23-7.23a1.833,1.833,0,0,0-2.59,0L.108,4.577a.366.366,0,0,0,.518.518l2.4-2.4.524.524-2.4,2.4a.366.366,0,0,0,.518.518l2.4-2.4.524.524-2.4,2.4a.366.366,0,0,0,.518.518l2.4-2.4.524.524-2.4,2.4a.366.366,0,0,0,.518.518l2.4-2.4.524.524-2.4,2.4a.366.366,0,0,0,.518.518l2.4-2.4.524.524-2.4,2.4a.366.366,0,0,0,.518.518l2.4-2.4.524.524-2.4,2.4a.366.366,0,0,0,.518.518l2.4-2.4.524.524-2.4,2.4a.366.366,0,0,0,.518.518l2.4-2.4.543.543Q9.173,12,7.511,13.484h0c-.329.292-.687.629-1.041.948a.369.369,0,0,0-.068.54h0a2.447,2.447,0,0,1-.166,3.27l-1.1,1.1a2.561,2.561,0,1,1,.158-3.4.367.367,0,0,0,.53.041l.005,0,0,0a.366.366,0,0,0-.032-.569,3.291,3.291,0,0,0-2.5-1.146h0a3.294,3.294,0,1,0,1.01,6.43A3.3,3.3,0,0,0,7.437,25h0A3.294,3.294,0,0,0,9.8,19.4l.748-.85q1.979-2.2,3.914-4.421l.552.552-2.4,2.4a.366.366,0,0,0,.518.518l2.4-2.4.524.524-2.4,2.4a.366.366,0,0,0,.518.518l2.4-2.4.524.524-2.4,2.4a.366.366,0,0,0,.518.518l2.4-2.4.524.524-2.4,2.4a.366.366,0,0,0,.518.518l2.4-2.4.524.524-2.4,2.4a.366.366,0,0,0,.518.518l2.4-2.4.524.524-2.4,2.4a.366.366,0,0,0,.518.518l2.4-2.4.524.524-2.4,2.4a.366.366,0,0,0,.518.518l2.4-2.4.524.524-2.4,2.4a.366.366,0,0,0,.518.518l2.657-2.657h0l.776-.776a1.831,1.831,0,0,0,0-2.59l-7.238-7.238c2.808-3.275,5.53-6.561,8.138-9.825A1.111,1.111,0,0,0,24.674.326ZM3.541,2.179l.518-.518a1.1,1.1,0,0,1,1.554,0L12.8,8.852q-.7.6-1.39,1.2Zm19.8,17.208a1.1,1.1,0,0,1,0,1.554l-.518.518L14.94,13.577q.6-.694,1.2-1.389ZM10.2,17.835A1.4,1.4,0,0,1,9.474,16.8a.366.366,0,0,0-.728.086h0a2,2,0,0,0,.889,1.448c.026.017.052.035.079.054-.254.29-.464.534-.7.8a.367.367,0,0,0,.041.53,2.563,2.563,0,1,1-4.175,1.993,2.618,2.618,0,0,1,.791-1.859L6.754,18.76a3.18,3.18,0,0,0,.929-2.253,3.131,3.131,0,0,0-.51-1.723c.287-.262.536-.495.826-.753v0C15.939,6.95,23.557.864,23.7.782c-.1.1-14.386,14.38-14.452,14.455a.366.366,0,1,0,.548.486C9.839,15.673,24.113,1.4,24.218,1.3,24.188,1.352,18.29,8.822,10.2,17.835Z" transform="translate(0 0)"/>
          </g>
        </g>
        <g id="Group_1219" data-name="Group 1219" transform="translate(1.476 15.706)">
          <g id="Group_1218" data-name="Group 1218">
            <path id="Path_376" data-name="Path 376" d="M33.155,322.6a1.843,1.843,0,1,0,0,2.608A1.847,1.847,0,0,0,33.155,322.6Zm-.522,2.086a1.106,1.106,0,1,1-.783-1.888A1.108,1.108,0,0,1,32.633,324.691Z" transform="translate(-30.006 -322.063)"/>
          </g>
        </g>
        <g id="Group_1221" data-name="Group 1221" transform="translate(5.599 19.838)">
          <g id="Group_1220" data-name="Group 1220">
            <path id="Path_377" data-name="Path 377" d="M116.665,407.051a1.846,1.846,0,0,0-.015,3.691,1.875,1.875,0,0,0,.718-.145,1.816,1.816,0,0,0,1.141-1.7A1.846,1.846,0,0,0,116.665,407.051Zm.421,2.864a1.1,1.1,0,1,1-.421-2.126,1.108,1.108,0,0,1,1.107,1.106A1.092,1.092,0,0,1,117.085,409.915Z" transform="translate(-114.818 -407.051)"/>
          </g>
        </g>
      </g>
    </g>
  </g>
</svg>
