<svg xmlns="http://www.w3.org/2000/svg" width="30" height="30" viewBox="0 0 30 30">
  <g id="Group_1481" data-name="Group 1481" transform="translate(14315.6 9772.857)">
    <rect id="Rectangle_284" data-name="Rectangle 284" width="30" height="30" transform="translate(-14315.6 -9772.857)" fill="none"/>
    <g id="Group_1453" data-name="Group 1453" transform="translate(-14443.469 -9788.92)">
      <path id="Path_551" data-name="Path 551" d="M154.823,26.14a.364.364,0,0,0-.281-.135h-.6l.436-3.02a.364.364,0,0,0-.362-.416h-3.995l.091-1.13a1.4,1.4,0,0,0-.529-1.205l-.5-.389a.845.845,0,0,0-1.367.6l-.17,2.125H131.72a.369.369,0,0,0-.276.125.374.374,0,0,0-.086.291l.436,3.02h-.6a.367.367,0,0,0-.357.439l.7,3.384a.366.366,0,0,0,.359.29h.492l1.411,9.793a.367.367,0,0,0,.362.313H140.4a4.49,4.49,0,0,0,3.525,2.224c.12.01.241.013.359.013a4.5,4.5,0,0,0,3.88-2.237h3.412a.367.367,0,0,0,.362-.313l1.411-9.793h.493a.363.363,0,0,0,.357-.29l.7-3.384A.363.363,0,0,0,154.823,26.14ZM153.6,23.3l-.391,2.707h-3.458l.215-2.707Zm-5.15-2.8a.114.114,0,0,1,.071-.1.115.115,0,0,1,.121.015l.5.391a.657.657,0,0,1,.249.572l-1.268,15.885a3.968,3.968,0,0,0-.7-.375c-.086-.037-.175-.071-.266-.1ZM144.2,38.975c-2.328-.187-3.7-.953-3.673-1.308.024-.306,1.12-.747,2.906-.747.293,0,.6.012.929.039a9.29,9.29,0,0,1,2.766.6c.683.293.916.579.907.7C148.01,38.622,146.532,39.162,144.2,38.975Zm2.746-8.857-.513,6.446a11.37,11.37,0,0,0-2.013-.333c-.4-.032-.8-.044-1.189-.037V30.118Zm.544-6.82-.215,2.707h-4.044V23.3Zm-4.988,0v2.707h-4.524l-.192-2.707Zm-10.364,0h4.917l.192,2.707h-4.719Zm-.495,3.438h15.572l-.212,2.653H132.192Zm2.828,12.758-1.35-9.375h4.417l.662,9.375Zm4.46,0-.662-9.375H142.5v6.114c-1.466.128-2.638.571-2.7,1.377a.609.609,0,0,0,0,.079,4.449,4.449,0,0,0,.259,1.8Zm5.05,2.227a3.772,3.772,0,0,1-3.38-2.958,4.248,4.248,0,0,0,.549.278,10.012,10.012,0,0,0,2.992.662c.328.025.658.039.983.039a7.433,7.433,0,0,0,2.665-.411A3.771,3.771,0,0,1,143.985,41.721Zm7.279-2.227h-2.756a4.465,4.465,0,0,0,.258-1.168v0l.655-8.205h3.194Zm2.283-10.1h-4.069l.212-2.653h4.4Z" fill="#fcc000"/>
    </g>
  </g>
</svg>
