<svg xmlns="http://www.w3.org/2000/svg" width="30" height="30" viewBox="0 0 30 30">
  <g id="Group_1496" data-name="Group 1496" transform="translate(14363.5 9487.842)">
    <rect id="Rectangle_299" data-name="Rectangle 299" width="30" height="30" transform="translate(-14363.5 -9487.842)" fill="none"/>
    <g id="Group_1480" data-name="Group 1480">
      <g id="Group_1479" data-name="Group 1479" transform="translate(-14361 -9482)">
        <g id="Group_1467" data-name="Group 1467" transform="translate(9.627 0)">
          <path id="Path_577" data-name="Path 577" d="M59.64,354.656a2.873,2.873,0,1,1,2.873-2.873A2.876,2.876,0,0,1,59.64,354.656Zm0-5.288a2.415,2.415,0,1,0,2.415,2.414A2.417,2.417,0,0,0,59.64,349.368Z" transform="translate(-56.768 -348.91)" fill="#fcc000"/>
        </g>
        <g id="Group_1470" data-name="Group 1470" transform="translate(8 10.395)">
          <g id="Group_1468" data-name="Group 1468" transform="translate(0 1.307)">
            <line id="Line_52" data-name="Line 52" x2="1.273" fill="none" stroke="#fcc000" stroke-width="1"/>
          </g>
          <g id="Group_1469" data-name="Group 1469" transform="translate(1.273)">
            <path id="Path_578" data-name="Path 578" d="M56.313,360.446" transform="translate(-56.313 -360.446)" fill="#fcc000"/>
          </g>
        </g>
        <g id="Group_1471" data-name="Group 1471" transform="translate(3.703 5.805)">
          <path id="Path_580" data-name="Path 580" d="M66.191,363.52A1.693,1.693,0,0,1,64.969,363l-2.354-2.418v1.119c0,.126-.173,0-.3,0s-.158.126-.158,0V359.46l3.14,3.225a1.277,1.277,0,0,0,1.763.024,1.248,1.248,0,0,0,.024-1.762l-4.933-5.068H56.043l-4.933,5.068a1.248,1.248,0,0,0,.024,1.762,1.277,1.277,0,0,0,1.763-.024l3.14-3.225v2.1a.229.229,0,1,1-.458,0v-.976L53.224,363a1.744,1.744,0,0,1-2.41.033,1.707,1.707,0,0,1-.033-2.411l5.068-5.206h6.495l5.068,5.206a1.7,1.7,0,0,1-1.221,2.893Z" transform="translate(-50.3 -355.421)" fill="#fcc000"/>
        </g>
        <g id="Group_1473" data-name="Group 1473" transform="translate(3.701 11.74)">
          <g id="Group_1472" data-name="Group 1472">
            <path id="Path_582" data-name="Path 582" d="M65.829,366.268H52.349a2.288,2.288,0,0,1-2.26-2.309,2.344,2.344,0,0,1,.32-1.18l.247-.423.165.464a1.234,1.234,0,0,0,2.061.45l1.177-1.236H64.119l1.177,1.236a1.233,1.233,0,0,0,2.061-.45l.165-.464.247.423a2.344,2.344,0,0,1,.32,1.18A2.288,2.288,0,0,1,65.829,366.268Zm-15.2-2.84a1.856,1.856,0,0,0-.078.531,1.824,1.824,0,0,0,1.8,1.841h13.48a1.824,1.824,0,0,0,1.8-1.841,1.856,1.856,0,0,0-.078-.531,1.7,1.7,0,0,1-.172.2,1.719,1.719,0,0,1-2.412-.034L63.925,362.5H54.253L53.21,363.6a1.719,1.719,0,0,1-2.412.034A1.623,1.623,0,0,1,50.625,363.428Zm2.421,0h0Z" transform="translate(-50.29 -362.033)" fill="#fcc000"/>
          </g>
        </g>
        <g id="Group_1474" data-name="Group 1474" transform="translate(8.058 11.786)">
          <path id="Path_583" data-name="Path 583" d="M55.212,366.046a.229.229,0,0,1-.229-.229v-3.505a.229.229,0,0,1,.458,0v3.505A.229.229,0,0,1,55.212,366.046Z" transform="translate(-54.983 -362.083)" fill="#fcc000"/>
        </g>
        <g id="Group_1475" data-name="Group 1475" transform="translate(9.874 11.786)">
          <path id="Path_584" data-name="Path 584" d="M57.226,366.184a.228.228,0,0,1-.229-.229v-3.643a.229.229,0,0,1,.458,0v3.643A.228.228,0,0,1,57.226,366.184Z" transform="translate(-56.997 -362.083)" fill="#fcc000"/>
        </g>
        <g id="Group_1476" data-name="Group 1476" transform="translate(16.484 11.786)">
          <path id="Path_585" data-name="Path 585" d="M64.555,366.046a.229.229,0,0,1-.229-.229v-3.505a.229.229,0,0,1,.458,0v3.505A.229.229,0,0,1,64.555,366.046Z" transform="translate(-64.326 -362.083)" fill="#fcc000"/>
        </g>
        <g id="Group_1477" data-name="Group 1477" transform="translate(14.668 11.786)">
          <path id="Path_586" data-name="Path 586" d="M62.541,366.184a.228.228,0,0,1-.229-.229v-3.643a.229.229,0,0,1,.458,0v3.643A.228.228,0,0,1,62.541,366.184Z" transform="translate(-62.312 -362.083)" fill="#fcc000"/>
        </g>
        <g id="Group_1478" data-name="Group 1478" transform="translate(0 16.783)">
          <path id="Path_587" data-name="Path 587" d="M69.07,369.071a2.386,2.386,0,0,1-1.754-.8,2.32,2.32,0,0,1-3.507,0,2.321,2.321,0,0,1-3.508,0,2.32,2.32,0,0,1-3.507,0,2.321,2.321,0,0,1-3.508,0,2.32,2.32,0,0,1-3.507,0,2.386,2.386,0,0,1-1.754.8,2.425,2.425,0,0,1-1.932-1.016.23.23,0,0,1,.042-.321.222.222,0,0,1,.316.043,1.9,1.9,0,0,0,3.148,0l.18-.239.179.239a1.9,1.9,0,0,0,3.149,0l.179-.239.18.239a1.9,1.9,0,0,0,3.148,0l.18-.239.179.239a1.9,1.9,0,0,0,3.149,0l.179-.238.18.238a1.9,1.9,0,0,0,3.148,0l.18-.239.179.239a1.9,1.9,0,0,0,3.148,0l.18-.238.18.238a1.9,1.9,0,0,0,3.148,0,.222.222,0,0,1,.316-.043.231.231,0,0,1,.042.321A2.427,2.427,0,0,1,69.07,369.071Z" transform="translate(-46.049 -367.539)" fill="#fcc000"/>
        </g>
      </g>
    </g>
  </g>
</svg>
