<svg xmlns="http://www.w3.org/2000/svg" width="30" height="30" viewBox="0 0 30 30">
  <g id="Group_1483" data-name="Group 1483" transform="translate(14265.369 9758.591)">
    <rect id="Rectangle_286" data-name="Rectangle 286" width="30" height="30" transform="translate(-14265.369 -9758.591)" fill="none"/>
    <g id="Group_1452" data-name="Group 1452" transform="translate(-14392.469 -9791.5)">
      <path id="Path_533" data-name="Path 533" d="M153.992,59.289l-.623-.624a1.015,1.015,0,0,1-.267-.792,1.34,1.34,0,0,0-.472-1.192,1.776,1.776,0,0,0-1.66-.131c-.467.154-.841.136-1.029-.05s-.2-.559-.049-1.027a1.459,1.459,0,0,0-2-2c-.467.153-.843.136-1.027-.05s-.2-.561-.05-1.029a1.458,1.458,0,0,0-2-2c-.47.153-.844.134-1.029-.05a.982.982,0,0,1-.069-.955l.94-.938a.367.367,0,0,0,0-.515L142.4,45.679l2-2a1.094,1.094,0,0,0,.128-1.39l3.528-3.528a1.092,1.092,0,0,0,0-1.542l-.987-.989a1.092,1.092,0,0,0-1.544,0L142,39.759a1.124,1.124,0,0,0-1.386.126l-6.536,6.536a1.093,1.093,0,0,0-.128,1.388l-3.528,3.528a1.088,1.088,0,0,0,0,1.542l.989.99a1.092,1.092,0,0,0,1.542,0l3.53-3.53a1.083,1.083,0,0,0,1.386-.128l2-2,2.262,2.264a.37.37,0,0,0,.258.106.363.363,0,0,0,.257-.106l.294-.294a1.237,1.237,0,0,0,.339.683,1.67,1.67,0,0,0,1.769.228c.47-.156.844-.136,1.029.05s.2.559.05,1.027a1.458,1.458,0,0,0,2,2c.468-.154.844-.136,1.029.05s.2.561.05,1.027a1.459,1.459,0,0,0,2,2,1.131,1.131,0,0,1,.987.013.671.671,0,0,1,.191.576,1.721,1.721,0,0,0,.477,1.348l.624.626a.364.364,0,1,0,.514-.515ZM146.04,36.744a.365.365,0,0,1,.515,0l.989.99a.365.365,0,0,1,0,.514l-3.515,3.515-1.5-1.5Zm-13.6,16.609a.364.364,0,0,1-.515,0l-.989-.989a.365.365,0,0,1,0-.514l3.515-3.515,1.5,1.5Zm4.916-3.656a.365.365,0,0,1-.514,0l-2.249-2.249a.364.364,0,0,1,0-.515l6.534-6.536a.374.374,0,0,1,.257-.106.363.363,0,0,1,.258.106l2.247,2.251a.361.361,0,0,1,0,.514l-2.259,2.259h0l-1.007,1.009Zm5.037.005L140.384,47.7l.75-.752.752-.75,2.007,2.007Z" transform="translate(0 0)" fill="#fcc000"/>
    </g>
  </g>
</svg>
