<svg xmlns="http://www.w3.org/2000/svg" width="48" height="48" viewBox="0 0 48 48">
  <g id="Group_1522" data-name="Group 1522" transform="translate(14071.251 1985)">
    <rect id="Rectangle_316" data-name="Rectangle 316" width="48" height="48" transform="translate(-14071.251 -1985)" fill="none"/>
    <g id="customer-service" transform="translate(-14093.002 -1985)">
      <path id="Path_594" data-name="Path 594" d="M31.517,368H25.5a1.5,1.5,0,1,0,0,3.006h4.51v2.255H25.5a1.5,1.5,0,0,0-1.5,1.5v5.261a1.5,1.5,0,0,0,1.5,1.5h6.013a1.5,1.5,0,0,0,0-3.007h-4.51v-2.255h4.51a1.5,1.5,0,0,0,1.5-1.5V369.5A1.5,1.5,0,0,0,31.517,368Z" transform="translate(0 -333.529)" fill="#fcc000"/>
      <path id="Path_595" data-name="Path 595" d="M159.517,368a1.5,1.5,0,0,0-1.5,1.5v3.758h-3.006V369.5a1.5,1.5,0,0,0-3.006,0v5.261a1.5,1.5,0,0,0,1.5,1.5h4.51v3.758a1.5,1.5,0,0,0,3.006,0V369.5A1.5,1.5,0,0,0,159.517,368Z" transform="translate(-116.007 -333.529)" fill="#fcc000"/>
      <path id="Path_596" data-name="Path 596" d="M280.261,368.2a1.5,1.5,0,0,0-2.051.559L272.2,379.278a1.5,1.5,0,1,0,2.61,1.492l6.013-10.523A1.5,1.5,0,0,0,280.261,368.2Z" transform="translate(-224.761 -333.527)" fill="#fcc000"/>
      <path id="Path_597" data-name="Path 597" d="M399.517,368H393.5a1.5,1.5,0,1,0,0,3.006h4.51v9.019a1.5,1.5,0,0,0,3.006,0V369.5A1.5,1.5,0,0,0,399.517,368Z" transform="translate(-333.52 -333.529)" fill="#fcc000"/>
      <path id="Path_598" data-name="Path 598" d="M105.118,25.556c1.326-2.567,1.364-7.693,1.364-8.269a17.24,17.24,0,1,0-34.48,0c0,.572.038,5.621,1.334,8.208.271.628,2.407,5.216,7.415,6.053a1.5,1.5,0,0,0,.493-2.966,5.992,5.992,0,0,1-2.3-.908,6.8,6.8,0,0,0,3.176-1.747,6.354,6.354,0,0,0,1.825-4.833,5.128,5.128,0,0,0-1.973-3.8c-.567-.436-1.717-1.051-5.144-1.354-.633-.056-1.236-.092-1.752-.115a14.239,14.239,0,0,1,28.335,0c-.515.023-1.119.059-1.752.115-3.426.3-4.577.918-5.144,1.354a5.129,5.129,0,0,0-1.973,3.8,6.355,6.355,0,0,0,1.825,4.833,6.84,6.84,0,0,0,4.688,1.934,5.485,5.485,0,0,0,.841-.063,4.24,4.24,0,0,0,3.222-2.242Z" transform="translate(-43.491)" fill="#fcc000"/>
    </g>
  </g>
</svg>
