<svg xmlns="http://www.w3.org/2000/svg" width="48" height="48" viewBox="0 0 48 48">
  <g id="Group_1524" data-name="Group 1524" transform="translate(14072 1688.104)">
    <rect id="Rectangle_318" data-name="Rectangle 318" width="48" height="48" transform="translate(-14072 -1688.104)" fill="none"/>
    <g id="subject" transform="translate(-14072 -1688.104)">
      <g id="Group_1509" data-name="Group 1509" transform="translate(11.276 12.84)">
        <g id="Group_1508" data-name="Group 1508">
          <path id="Path_606" data-name="Path 606" d="M122.023,137h-.6l-1.127,5.636h2.857Z" transform="translate(-120.293 -137)" fill="#fcc000"/>
        </g>
      </g>
      <g id="Group_1511" data-name="Group 1511" transform="translate(35.746 24.089)">
        <g id="Group_1510" data-name="Group 1510">
          <path id="Path_607" data-name="Path 607" d="M381.374,257a14.726,14.726,0,0,0,2.313,4.083A14.872,14.872,0,0,0,386.094,257Z" transform="translate(-381.374 -257)" fill="#fcc000"/>
        </g>
      </g>
      <g id="Group_1513" data-name="Group 1513" transform="translate(22.7 8.454)">
        <g id="Group_1512" data-name="Group 1512">
          <path id="Path_608" data-name="Path 608" d="M263.736,91h-17.5l3.649,29.277a4.374,4.374,0,0,1-1.044,3.207l-6.179,7.061h21.073a4.232,4.232,0,0,0,4.227-4.227v-31A4.313,4.313,0,0,0,263.736,91Zm0,15.593h-.376a17.88,17.88,0,0,1-3.394,6.172c1.035.946,2.142,1.723,3.242,2.592a1.409,1.409,0,0,1-1.761,2.2c-1.2-.944-2.318-1.734-3.44-2.764-1.122,1.03-2.151,1.82-3.346,2.764a1.409,1.409,0,0,1-1.761-2.2c1.1-.869,2.113-1.646,3.148-2.592a17.784,17.784,0,0,1-3.3-6.172h-.376a1.409,1.409,0,1,1,0-2.818H256.6v-1.409a1.409,1.409,0,1,1,2.818,0v1.409h4.321a1.409,1.409,0,1,1,0,2.818Z" transform="translate(-242.663 -91)" fill="#fcc000"/>
        </g>
      </g>
      <g id="Group_1515" data-name="Group 1515">
        <g id="Group_1514" data-name="Group 1514">
          <path id="Path_609" data-name="Path 609" d="M22.935,3.7A4.233,4.233,0,0,0,18.741,0H4.227A4.232,4.232,0,0,0,0,4.227V35.413A4.232,4.232,0,0,0,4.227,39.64h22.22c.411-.47.756-.764.77-1.377C27.221,38.109,22.954,3.855,22.935,3.7ZM17.278,26.931a1.409,1.409,0,0,1-1.658-1.1l-.9-4.5H10.736l-.9,4.5a1.409,1.409,0,0,1-2.763-.553L9.89,11.183a1.41,1.41,0,0,1,1.381-1.132h2.912a1.41,1.41,0,0,1,1.381,1.132l2.818,14.09A1.409,1.409,0,0,1,17.278,26.931Z" fill="#fcc000"/>
        </g>
      </g>
      <g id="Group_1517" data-name="Group 1517" transform="translate(16.425 42.364)">
        <g id="Group_1516" data-name="Group 1516">
          <path id="Path_610" data-name="Path 610" d="M175.261,452l.242,1.933a4.261,4.261,0,0,0,2.436,3.274L182.67,452h-7.409Z" transform="translate(-175.261 -452)" fill="#fcc000"/>
        </g>
      </g>
    </g>
  </g>
</svg>
