<svg xmlns="http://www.w3.org/2000/svg" width="48" height="48" viewBox="0 0 48 48">
  <g id="logout_1_" data-name="logout (1)" transform="translate(0 -0.004)">
    <path id="Path_604" data-name="Path 604" d="M30.074,26a2,2,0,0,0-2,2v8a2,2,0,0,1-2.005,2H20.049V8a4.032,4.032,0,0,0-2.731-3.8L16.725,4h9.339a2,2,0,0,1,2.005,2v6a2,2,0,0,0,4.01,0V6a6.015,6.015,0,0,0-6.015-6H4.511A1.578,1.578,0,0,0,4.3.048C4.2.04,4.108,0,4.01,0A4.009,4.009,0,0,0,0,4V40a4.032,4.032,0,0,0,2.731,3.8L14.8,47.818A4.16,4.16,0,0,0,16.04,48a4.009,4.009,0,0,0,4.01-4V42h6.015a6.015,6.015,0,0,0,6.015-6V28a2,2,0,0,0-2-2Zm0,0" transform="translate(0 0)" fill="#fcc000"/>
    <path id="Path_605" data-name="Path 605" d="M298.8,115.273l-8.02-8.02a2,2,0,0,0-3.422,1.417v6.015h-8.02a2,2,0,1,0,0,4.01h8.02v6.015a2,2,0,0,0,3.422,1.418l8.02-8.02a2,2,0,0,0,0-2.835Zm0,0" transform="translate(-251.387 -96.68)" fill="#fcc000"/>
  </g>
</svg>
