<svg xmlns="http://www.w3.org/2000/svg" width="48" height="48" viewBox="0 0 48 48">
  <g id="Group_1521" data-name="Group 1521" transform="translate(14072 2251.3)">
    <rect id="Rectangle_315" data-name="Rectangle 315" width="48" height="48" transform="translate(-14072 -2251.3)" fill="none"/>
    <g id="validating-ticket" transform="translate(-14130 -2251.3)">
      <path id="Path_602" data-name="Path 602" d="M95.687,0h-.256a3.263,3.263,0,0,0-3.039,2.059,1.5,1.5,0,0,1-2.785,0A3.263,3.263,0,0,0,86.568,0h-.137a3.263,3.263,0,0,0-3.039,2.059,1.5,1.5,0,0,1-2.785,0A3.263,3.263,0,0,0,77.568,0h-.137a3.263,3.263,0,0,0-3.039,2.059,1.5,1.5,0,0,1-2.785,0A3.263,3.263,0,0,0,68.568,0h-.256A4.317,4.317,0,0,0,64,4.312V43.687A4.317,4.317,0,0,0,68.312,48h.256a3.263,3.263,0,0,0,3.039-2.059,1.5,1.5,0,0,1,2.785,0A3.263,3.263,0,0,0,77.432,48h.137a3.263,3.263,0,0,0,3.039-2.059,1.5,1.5,0,0,1,2.785,0A3.263,3.263,0,0,0,86.432,48h.137a3.263,3.263,0,0,0,3.039-2.059,1.5,1.5,0,0,1,2.785,0A3.263,3.263,0,0,0,95.432,48h.256A4.317,4.317,0,0,0,100,43.687V4.312A4.317,4.317,0,0,0,95.687,0ZM82.033,22.5a6,6,0,0,1,1.8,11.715.47.47,0,0,0-.329.447v1.3A1.528,1.528,0,0,1,82.073,37.5,1.5,1.5,0,0,1,80.5,36V34.662a.472.472,0,0,0-.331-.448A6.011,6.011,0,0,1,76,28.566,1.531,1.531,0,0,1,77.46,27,1.5,1.5,0,0,1,79,28.5a3,3,0,1,0,3-3,6,6,0,0,1-1.829-11.715.47.47,0,0,0,.329-.447v-1.3A1.528,1.528,0,0,1,81.927,10.5,1.5,1.5,0,0,1,83.5,12v1.338a.472.472,0,0,0,.331.448A6.011,6.011,0,0,1,88,19.434,1.531,1.531,0,0,1,86.54,21,1.5,1.5,0,0,1,85,19.5a3,3,0,1,0-6,.031A3.035,3.035,0,0,0,82.033,22.5Z" transform="translate(0)" fill="#fcc000"/>
    </g>
  </g>
</svg>
