<svg xmlns="http://www.w3.org/2000/svg" width="48" height="48" viewBox="0 0 48 48">
  <g id="Group_1520" data-name="Group 1520" transform="translate(14071.5 2402.109)">
    <rect id="Rectangle_314" data-name="Rectangle 314" width="48" height="48" transform="translate(-14071.5 -2402.109)" fill="none"/>
    <g id="notification_5_" data-name="notification (5)" transform="translate(-14144 -2402.109)">
      <path id="Path_599" data-name="Path 599" d="M110,31.758V19.5A13.519,13.519,0,0,0,98,6.084V3.75a.75.75,0,0,1,1.5,0,1.5,1.5,0,0,0,3,0,3.75,3.75,0,0,0-7.5,0V6.084A13.519,13.519,0,0,0,83,19.5V31.758A4.5,4.5,0,0,0,84.5,40.5h6.192a6,6,0,1,0,11.617,0H108.5a4.5,4.5,0,0,0,1.5-8.742ZM96.5,9A10.6,10.6,0,0,1,107,19.676V30a1.5,1.5,0,0,1-3,0V19.676A7.6,7.6,0,0,0,96.5,12a1.5,1.5,0,0,1,0-3Zm12,28.5h-24a1.5,1.5,0,0,1,0-3h24a1.5,1.5,0,0,1,0,3Z" fill="#fcc000"/>
    </g>
  </g>
</svg>
