<svg xmlns="http://www.w3.org/2000/svg" width="48" height="48" viewBox="0 0 48 48">
  <g id="Group_1523" data-name="Group 1523" transform="translate(14072 1835.711)">
    <rect id="Rectangle_317" data-name="Rectangle 317" width="48" height="48" transform="translate(-14072 -1835.711)" fill="none"/>
    <g id="settings_4_" data-name="settings (4)" transform="translate(-14072 -1835.711)">
      <path id="Path_600" data-name="Path 600" d="M184.133,176.027c-.207-.018-.416-.027-.628-.027a7.505,7.505,0,1,0,0,15.011c.212,0,.42-.009.62-.026a7.5,7.5,0,0,0,.007-14.958Z" transform="translate(-159.505 -159.505)" fill="#fcc000"/>
      <path id="Path_601" data-name="Path 601" d="M46.462,20.288A5.215,5.215,0,0,0,42.75,18.75H41.222a17.828,17.828,0,0,0-1.332-3.215l1.081-1.081a5.25,5.25,0,0,0-7.425-7.425L32.465,8.11A17.841,17.841,0,0,0,29.25,6.778V5.25A5.266,5.266,0,0,0,25.045.1,5.324,5.324,0,0,0,24,0a5.251,5.251,0,0,0-5.25,5.25V6.778A17.828,17.828,0,0,0,15.535,8.11L14.454,7.029a5.25,5.25,0,0,0-7.425,7.425L8.11,15.535A17.837,17.837,0,0,0,6.778,18.75H5.25a5.25,5.25,0,0,0,0,10.5H6.778A17.828,17.828,0,0,0,8.11,32.465L7.029,33.546a5.25,5.25,0,0,0,7.425,7.425l1.081-1.081a17.835,17.835,0,0,0,3.215,1.332V42.75A5.256,5.256,0,0,0,24,48a5.324,5.324,0,0,0,1.045-.1h0a5.254,5.254,0,0,0,4.2-5.145V41.222a17.827,17.827,0,0,0,3.215-1.332l1.081,1.081a5.25,5.25,0,0,0,7.425-7.425L39.89,32.465a17.838,17.838,0,0,0,1.332-3.215H42.75a5.249,5.249,0,0,0,3.712-8.962ZM31.708,31.13a10.461,10.461,0,0,1-6.836,3.333c-.279.024-.575.037-.873.037a10.5,10.5,0,1,1,0-21c.3,0,.594.013.88.037A10.5,10.5,0,0,1,31.708,31.13Z" transform="translate(0 0)" fill="#fcc000"/>
    </g>
  </g>
</svg>
