<svg xmlns="http://www.w3.org/2000/svg" width="30" height="30" viewBox="0 0 30 30">
  <g id="Group_1315" data-name="Group 1315" transform="translate(-3330 -5772.5)">
    <rect id="Rectangle_261" data-name="Rectangle 261" width="30" height="30" transform="translate(3330 5772.5)" fill="none"/>
    <g id="Group_1167" data-name="Group 1167" transform="translate(-4515.866 6145.069)">
      <g id="Group_1121" data-name="Group 1121" transform="translate(6734.252 -399.125)">
        <path id="Path_349" data-name="Path 349" d="M1185.953,45.02l1.4-.089h.008a3.383,3.383,0,0,0,2.521-1.474l1.1-1.623a6.647,6.647,0,0,0,1.063-4.872,1.569,1.569,0,0,0-1.472-1.306,6.624,6.624,0,0,0-4.7,1.641L1184.4,38.59a3.391,3.391,0,0,0-1.159,2.687l.08,1.4a1.877,1.877,0,0,1-.521,1.406l-11.536,11.866a1.771,1.771,0,0,0-.475,1.314,2.021,2.021,0,0,0,2.045,1.965c.054,0,.108,0,.161-.007a1.769,1.769,0,0,0,1.248-.632l10.379-12.886A1.874,1.874,0,0,1,1185.953,45.02Zm-2.621-3.745Zm.885,1.355-.08-1.394a2.493,2.493,0,0,1,.853-1.97l1.476-1.293a5.732,5.732,0,0,1,3.791-1.427q.139,0,.278.007a.67.67,0,0,1,.628.558,5.75,5.75,0,0,1-.92,4.215l-1.1,1.623a2.488,2.488,0,0,1-1.849,1.083l-1.393.088a2.777,2.777,0,0,0-1.974,1.019l-10.378,12.885a.878.878,0,0,1-.622.3,1.125,1.125,0,0,1-1.237-1.1.878.878,0,0,1,.223-.652l11.535-11.864A2.782,2.782,0,0,0,1184.217,42.63Z" transform="translate(-53.53 -5.742)" fill="#fcc000"/>
        <path id="Path_350" data-name="Path 350" d="M1414.254,323.287l-7.833-7.134a.455.455,0,1,0-.613.673l7.83,7.132a.89.89,0,0,1,.267.647,1.139,1.139,0,0,1-1.183,1.183.887.887,0,0,1-.645-.265l-6.979-7.662a.455.455,0,1,0-.673.613l6.981,7.665a1.791,1.791,0,0,0,1.3.56h.039a2.048,2.048,0,0,0,2.071-2.112A1.793,1.793,0,0,0,1414.254,323.287Z" transform="translate(-276.337 -273.209)" fill="#fcc000"/>
        <path id="Path_351" data-name="Path 351" d="M1119,39.291a3.433,3.433,0,0,0,2.243.908h.014l1.418,0a1.9,1.9,0,0,1,1.387.612l.625.686a.455.455,0,0,0,.643.03.455.455,0,0,0,.03-.643l-.626-.687a2.81,2.81,0,0,0-2.056-.908l-1.411,0a2.532,2.532,0,0,1-1.629-.649l-4.1-4.879a.03.03,0,0,1,0-.042.031.031,0,0,1,.043,0l3.74,3.74a1.043,1.043,0,0,0,1.474,0l1.192-1.192.055-.055.412-.412a1.043,1.043,0,0,0,0-1.474l-3.74-3.74a.031.031,0,0,1,0-.043.03.03,0,0,1,.041,0l4.879,4.1a2.528,2.528,0,0,1,.649,1.626l0,1.414a2.815,2.815,0,0,0,.909,2.057l.669.609a.455.455,0,1,0,.613-.673l-.668-.608a1.9,1.9,0,0,1-.614-1.389l0-1.417a.042.042,0,0,0,0-.01,3.436,3.436,0,0,0-.908-2.247.419.419,0,0,0-.042-.04l-4.9-4.124a.941.941,0,0,0-1.271,1.385l3.74,3.74a.133.133,0,0,1,0,.187l-.118.118-4.1-4.1a.455.455,0,1,0-.643.643l4.1,4.1-.137.137-4.1-4.1a.455.455,0,1,0-.643.643l4.1,4.1-.118.118a.132.132,0,0,1-.187,0l-3.74-3.74a.941.941,0,0,0-1.385,1.271l4.123,4.9A.442.442,0,0,0,1119,39.291Z" transform="translate(0 0)" fill="#fcc000"/>
      </g>
    </g>
  </g>
</svg>
